<svg width="280" height="197" viewBox="0 0 280 197" fill="none" xmlns="http://www.w3.org/2000/svg">
<path d="M234.16 104.892C233.967 106.307 233.378 108.266 233.061 109.029C232.574 110.617 230.101 115.554 226.545 118.86C226.544 119.424 226.544 119.818 226.544 119.818C226.026 120.236 219.883 125.473 216.963 127.91L215.175 128.024C211.818 126.236 204.733 122.368 204.141 122.065V121.873C202.017 120.945 200.045 119.476 198.123 117.518C195.403 114.746 193.757 111.677 192.791 109.107C191.724 109.45 190.526 109.136 189.708 108.569C187.861 107.29 187.007 105.394 186.479 104.152C185.734 102.4 185.506 99.5023 186.337 97.8674C186.616 97.3196 187.285 96.3743 188.991 96.2035C189.775 96.1249 190.709 96.304 191.432 96.895C191.432 96.895 188.373 79.4098 208.62 76.6665C236.098 72.9431 233.656 94.1304 233.656 94.1304C234.296 93.4499 235.199 93.1509 235.987 93.1264C237.701 93.0729 238.487 93.9229 238.835 94.43C239.873 95.9425 240.023 98.845 239.513 100.68C239.151 101.979 238.551 103.971 236.886 105.479C236.201 106.101 235.161 106.549 234.133 106.449" fill="white"/>
<path d="M1.3302 127.728C1.4326 126.407 1.66572 124.906 1.8924 123.85C2.58147 120.635 3.98859 117.061 5.34226 115.937C7.66192 113.785 9.90043 114.622 12.7301 115.431C13.5287 115.659 16.8137 116.94 17.0706 118.384C17.3166 117.485 17.9303 116.765 18.9466 116.563C19.7445 116.405 21.2611 116.261 22.1414 117.811C23.2143 119.7 23.2703 124.634 22.2258 126.422C22.0815 126.668 21.9012 126.864 21.6848 127.015C21.7151 127.708 21.7363 128.183 21.7363 128.183C21.8039 129.719 22.2721 132.443 21.5837 134.052C20.5301 136.513 18.9788 138.004 17.032 138.684C17.0062 139.098 16.9869 139.411 16.9869 139.411C16.9566 139.909 16.9438 140.707 16.9341 141.56C13.132 142.013 9.3086 142.606 5.49102 143.303C5.1188 142.054 4.56239 139.546 4.69376 138.109C4.81419 136.792 3.85207 135.632 3.15591 134.508C2.20796 132.977 1.40619 131.293 1.29285 129.496C1.26194 129.003 1.27997 128.389 1.33149 127.73L1.3302 127.728Z" fill="white"/>
<path d="M15.697 139.409C15.5881 141.255 15.6879 143.108 15.5791 144.954C15.5392 145.628 16.1999 146.272 16.8671 146.242C17.5987 146.21 18.1126 145.676 18.1551 144.954C18.2639 143.108 18.1641 141.255 18.2729 139.409C18.3129 138.735 17.6521 138.09 16.9849 138.12C16.2534 138.153 15.7395 138.687 15.697 139.409Z" fill="#211715"/>
<path d="M16.5677 140.155C19.0618 139.566 21.0415 137.872 22.2464 135.635C22.9187 134.387 23.2317 133.151 23.2413 131.732C23.2491 130.544 23.0823 129.367 23.0237 128.181C22.9889 127.486 22.4563 126.893 21.7357 126.893C21.0646 126.893 20.4129 127.483 20.4477 128.181C20.4999 129.232 20.639 130.278 20.6622 131.331C20.6866 132.442 20.599 133.222 20.1012 134.186C19.1462 136.032 17.7977 137.218 15.8837 137.669C14.2712 138.049 14.9532 140.536 16.5677 140.155Z" fill="#211715"/>
<path d="M8.76443 121.803C9.84054 121.831 10.916 121.841 11.9895 121.926C13.1577 122.018 14.3453 122.174 15.5167 122.061C17.5356 121.865 18.877 120.326 18.3889 118.255C18.0005 116.608 16.4479 115.636 15.015 114.961C13.5235 114.258 11.8891 113.744 10.2675 113.453C8.28015 113.097 6.44671 113.387 4.83995 114.676C3.38711 115.841 2.59693 117.557 1.92654 119.254C1.13314 121.264 0.607001 123.369 0.299174 125.506C0.011954 127.5 -0.217307 129.534 0.345541 131.504C0.713904 132.794 1.336 134.021 2.04181 135.157C2.54799 135.971 3.36006 136.865 3.41351 137.862C3.47083 138.933 3.45988 139.951 3.64277 141.023C3.80377 141.964 4.01822 142.901 4.29836 143.814C4.78328 145.396 7.27037 144.721 6.78223 143.129C6.36299 141.763 6.01781 140.309 5.965 138.876C5.93602 138.088 6.02747 137.341 5.76923 136.572C5.47493 135.699 4.96231 134.941 4.46708 134.173C3.48757 132.654 2.59629 130.967 2.56409 129.118C2.5364 127.539 2.77403 125.93 3.09152 124.387C3.45666 122.614 3.97314 120.824 4.73562 119.178C5.31908 117.92 6.05581 116.616 7.41849 116.075C8.78117 115.533 10.3274 116.08 11.6495 116.461C12.7501 116.778 13.7876 117.153 14.7729 117.751C15.3608 118.108 16.7048 119.355 15.2964 119.502C14.2087 119.616 13.0714 119.435 11.9876 119.349C10.9141 119.264 9.83861 119.254 8.7625 119.226C7.10422 119.183 7.10551 121.761 8.7625 121.804L8.76443 121.803Z" fill="#211715"/>
<path d="M14.4946 122.289C14.5648 122.309 14.6344 122.331 14.7026 122.355C14.5597 122.29 14.5532 122.288 14.6833 122.349C14.7992 122.416 14.9119 122.483 15.0234 122.557C14.7728 122.391 14.9995 122.551 15.0517 122.603C15.0948 122.647 15.1367 122.693 15.1766 122.74C15.071 122.597 15.0575 122.583 15.1373 122.697C15.1683 122.752 15.3241 122.942 15.3067 123.006L15.2417 122.858C15.261 122.912 15.2777 122.966 15.2925 123.021C15.3872 123.373 15.317 122.874 15.3132 123.089C15.3132 123.116 15.2906 123.311 15.3112 123.332C15.3447 123.123 15.3486 123.088 15.3228 123.226C15.3119 123.278 15.2983 123.329 15.2822 123.379C15.2649 123.434 15.2262 123.5 15.2159 123.557C15.2764 123.22 15.3499 123.276 15.2784 123.4C15.2481 123.452 15.223 123.508 15.1914 123.56C15.1592 123.614 15.1045 123.669 15.0807 123.726C15.1167 123.641 15.308 123.476 15.1431 123.632C15.1193 123.654 14.9725 123.77 14.9712 123.795C15.1509 123.66 15.1869 123.632 15.0787 123.71C15.051 123.73 15.0227 123.749 14.9937 123.766C14.9222 123.812 14.843 123.845 14.7728 123.891C14.6093 123.997 15.0446 123.801 14.7033 123.915C14.4869 123.987 14.2634 124.036 14.0387 124.071C14.3575 124.022 13.8545 124.078 13.7972 124.08C13.6703 124.086 13.5428 124.087 13.416 124.088C13.1281 124.091 12.8409 124.089 12.553 124.087C11.3584 124.075 10.1651 124.023 8.97178 123.982C8.29752 123.959 7.65353 124.591 7.6838 125.271C7.716 125.989 8.24986 126.534 8.97178 126.559C10.073 126.597 11.1736 126.644 12.2754 126.661C13.329 126.677 14.4637 126.739 15.4703 126.373C17.1253 125.773 18.2014 124.206 17.7983 122.418C17.5066 121.123 16.4176 120.169 15.1805 119.804C14.5346 119.613 13.7489 120.034 13.5963 120.704C13.4391 121.396 13.8043 122.086 14.4959 122.289H14.4946Z" fill="#211715"/>
<path d="M13.1506 126.609C13.2447 126.654 13.6272 126.798 13.6491 126.902C13.6323 126.823 13.4849 126.764 13.651 126.917C13.7219 126.983 13.783 127.06 13.8539 127.125C13.9634 127.225 13.7341 126.929 13.8584 127.129C13.9093 127.21 13.9563 127.29 14.0033 127.373C14.1263 127.591 13.9653 127.149 14.0142 127.411C14.0226 127.458 14.1128 127.707 14.0503 127.512C13.991 127.327 14.0426 127.564 14.0484 127.619C14.0767 127.879 14.1192 127.418 14.0458 127.66C14.0348 127.707 14.0207 127.755 14.0046 127.801C13.9737 127.891 13.9865 127.865 14.0432 127.721C14.0368 127.803 13.9357 127.912 13.8977 127.979C13.785 128.181 13.9904 127.9 13.8867 127.995C13.8255 128.05 13.7734 128.118 13.7128 128.174C13.6639 128.22 13.6143 128.264 13.5621 128.306L13.6639 128.225C13.6369 128.278 13.434 128.374 13.3838 128.403C13.3039 128.449 13.2221 128.492 13.1397 128.532C13.0901 128.557 13.0399 128.58 12.9896 128.603C13.1107 128.553 13.1275 128.546 13.0412 128.58C12.848 128.646 12.658 128.719 12.4629 128.781C12.0449 128.912 11.6154 129.032 11.2303 129.247C10.7099 129.539 10.3319 129.993 10.131 130.551C9.92618 131.121 10.0228 131.74 10.131 132.317C10.2553 132.982 11.0918 133.419 11.7152 133.218C12.4249 132.988 12.7481 132.344 12.6148 131.632C12.5949 131.525 12.582 131.307 12.5929 131.536C12.5878 131.429 12.5704 131.313 12.5891 131.207C12.5749 131.285 12.4712 131.538 12.5794 131.368C12.4693 131.507 12.4635 131.527 12.562 131.428L12.45 131.522C12.5028 131.489 12.5575 131.459 12.6142 131.432L12.4815 131.486C12.4802 131.476 12.7411 131.394 12.7539 131.39C12.9555 131.324 13.159 131.267 13.3599 131.2C14.4026 130.85 15.3428 130.344 16.0054 129.444C16.6037 128.631 16.8072 127.506 16.435 126.554C16.0673 125.612 15.366 124.829 14.4502 124.386C13.8442 124.093 13.0302 124.2 12.6883 124.849C12.3836 125.425 12.5028 126.299 13.1506 126.612V126.609Z" fill="#211715"/>
<path d="M20.3009 128.708C21.6198 128.616 22.8285 128.111 23.4442 126.868C23.9001 125.948 24.0708 124.94 24.1816 123.927C24.3986 121.947 24.3142 119.685 23.5562 117.821C23.0803 116.65 22.218 115.689 20.9726 115.334C19.9705 115.048 18.7875 115.157 17.8434 115.584C15.5141 116.637 15.2056 119.938 15.3924 122.173C15.6261 124.973 16.9083 128.73 20.3009 128.708C21.9579 128.698 21.9617 126.12 20.3009 126.131C19.644 126.135 19.1855 125.752 18.8409 125.129C18.3953 124.321 18.1242 123.409 17.9999 122.494C17.8962 121.734 17.9084 120.703 18.016 120.002C18.0817 119.574 18.1783 119.149 18.3058 118.736C18.4075 118.405 18.5074 118.188 18.7823 117.983C18.8912 117.903 19.1765 117.84 19.4572 117.776C19.6781 117.726 19.4392 117.78 19.3986 117.783C19.4856 117.777 19.5712 117.767 19.6582 117.764C19.8256 117.756 19.995 117.757 20.1618 117.778C19.8262 117.737 20.4863 117.882 20.3691 117.839C20.2867 117.809 20.6853 118.021 20.6564 117.999C20.7072 118.037 20.8663 118.208 20.9384 118.313C20.9932 118.394 21.2224 118.871 21.1129 118.604C21.6983 120.035 21.7395 121.379 21.6771 122.949C21.6404 123.87 21.6037 124.359 21.3313 125.247C21.301 125.346 21.0949 125.805 21.2411 125.525C21.2121 125.58 21.1896 125.639 21.1567 125.693C21.1451 125.713 20.9745 125.974 21.0711 125.843C20.9455 126.012 20.6512 126.106 20.3009 126.131C19.6066 126.179 19.0129 126.689 19.0129 127.42C19.0129 128.08 19.6034 128.757 20.3009 128.708V128.708Z" fill="#211715"/>
<path d="M63.3967 157.039C63.9518 159.273 64.5488 161.481 65.3474 164.551C68.5918 158.889 69.8321 156.716 72.7062 150.943C75.1296 146.077 77.6888 140.98 80.0162 135.861C79.6324 135.992 79.3619 136.085 79.3619 136.085C76.0151 137.292 71.4807 137.454 68.0933 136.856C64.6731 136.252 61.4255 134.876 58.4058 133.16C59.4233 138.713 60.6984 144.329 61.7397 149.567C62.3509 152.64 62.8538 154.853 63.3967 157.039Z" fill="#7ABEE6"/>
<path d="M195.937 68.2252C195.822 68.3167 195.708 68.4088 195.595 68.5023C191.119 72.2013 186.193 78.5907 186.407 88.3956C186.461 90.8451 186.984 93.638 187.971 96.4283C188.261 96.3214 188.598 96.2414 188.99 96.2028C189.774 96.1242 190.708 96.3033 191.431 96.8942L192.335 97.6334C193.116 94.1677 195.876 87.1325 199.384 85.2779C202.094 83.9227 206.797 85.0162 209.942 85.0401C215.15 85.0788 224.474 82.3703 226.969 84.502C228.862 85.5801 232.5 96.5211 233.655 94.1297C234.295 93.4492 235.198 93.1501 235.986 93.1257C236.339 93.1147 236.653 93.1418 236.932 93.1972C237.524 90.1156 237.713 87.8279 237.41 85.0568C236.386 75.6837 231.253 70.0482 226.306 66.8977C221.872 64.1034 216.791 62.4318 210.347 62.8539C204.567 63.2322 199.741 65.197 195.937 68.2252Z" fill="#645D5C"/>
<path d="M194.687 195.717C193.193 187.672 191.369 177.87 189.663 169.4C183.815 173.675 179.775 176.959 173.706 181.933C173.706 181.933 172.878 182.697 171.918 183.583C171.822 181.3 171.742 179.171 171.703 177.461C171.503 169.389 170.83 159.628 170.577 151.347L171.227 150.632C174.077 147.667 180.117 138.665 183.952 135.709C188.636 132.098 195.341 128.921 201.243 126.659C202.271 125.172 203.495 123.014 204.141 122.064C204.734 122.367 211.818 126.235 215.175 128.022L216.963 127.909C219.884 125.471 226.027 120.235 226.544 119.816C227.366 120.609 228.99 122.452 230.296 123.698C236.208 126.114 246.386 130.144 249.489 131.172L274.177 150.637C274.542 150.655 274.87 150.671 275.375 150.678C275.879 150.686 276.339 150.977 276.545 151.436C277.185 152.823 277.717 154.667 277.994 156.007C278.661 159.274 278.87 163.217 278.616 166.48C278.256 171.16 277.846 175.026 275.027 178.736C272.292 182.331 267.945 184.519 263.863 182.294C262.207 181.384 260.895 180.461 259.724 178.979C256.853 175.321 254.132 171.541 251.582 167.651C253.308 175.993 255.565 186.149 257.695 195.717H194.687V195.717Z" fill="white"/>
<path d="M215.754 176.035C214.49 174.487 213.307 172.955 212.358 171.577C212.281 171.461 212.242 171.332 212.249 171.191C212.571 162.91 213.962 139.543 213.91 139.098C213.801 138.228 213.453 137.397 213.105 136.591C212.828 135.941 212.609 135.335 212.403 134.755L212.048 133.926C213.267 131.577 214.752 128.882 215.175 128.023L216.963 127.909C217.56 128.673 219.609 131.058 221.297 133.127C221.219 134.202 221.136 135 221.007 136.089C220.988 136.308 220.955 136.527 220.923 136.753C220.865 137.236 220.801 137.732 220.852 138.222C220.878 138.493 227.312 162.214 229.044 169.902C229.076 170.043 229.057 170.179 228.992 170.314C227.324 173.833 225.019 178.17 222.501 182.513C222.282 182.887 221.76 182.945 221.464 182.623C219.723 180.706 217.647 178.353 215.754 176.035Z" fill="#3D8DCC"/>
<path d="M162.533 89.5363C163.222 88.9047 164.145 88.6734 164.931 88.7075C166.645 88.781 167.366 89.6871 167.675 90.2181C168.598 91.8033 168.534 94.7084 167.889 96.5012C167.433 97.7707 166.687 99.7123 164.916 101.093C164.186 101.662 163.117 102.032 162.099 101.856C162.099 101.856 162.001 101.84 161.829 101.81C161.497 102.845 161.089 103.858 160.84 104.35C160.182 106.039 156.869 111.532 152.551 114.459C152.551 115.315 152.551 116.175 152.551 116.175C151.994 116.538 145.344 121.114 142.189 123.238L140.399 123.166C137.243 121.042 130.594 116.465 130.036 116.103V114.433C128.38 113.384 126.846 111.976 125.37 110.232C122.863 107.267 121.447 104.084 120.673 101.45C119.584 101.713 118.413 101.311 117.638 100.685C115.892 99.2735 115.179 97.3196 114.745 96.0423C114.132 94.2393 114.117 91.3329 115.067 89.7644C115.385 89.2385 116.123 88.3454 117.837 88.3015C118.625 88.2816 119.543 88.5284 120.22 89.1715C120.22 89.1715 117.464 71.7695 140.754 71.7695C165.44 71.7695 162.533 89.5376 162.533 89.5376L162.533 89.5363Z" fill="white"/>
<path d="M141.35 123.204L140.399 123.166C137.243 121.042 130.594 116.466 130.036 116.104C129.189 117.108 127.429 119.606 126.194 120.924C128.384 130.198 132.036 140.111 134.956 149.082C137.324 156.361 138.019 158.574 141.302 166.624C144.214 159.126 145.478 156.25 147.85 148.99C150.744 140.129 154.36 130.344 156.561 121.171C155.323 119.913 153.438 117.227 152.551 116.176C151.993 116.539 145.344 121.115 142.188 123.239L141.35 123.205L141.35 123.204Z" fill="white"/>
<path d="M141.273 123.201L140.399 123.166C139.894 123.972 138.16 126.472 136.712 128.673L136.952 129.576C137.094 130.176 137.251 130.8 137.461 131.479C137.724 132.316 137.986 133.177 138.001 134.054C138.009 134.504 136.786 143.014 135.631 151.153C137.494 156.871 138.354 159.391 141.304 166.624C143.897 159.947 145.183 156.934 147.108 151.229C146.201 143.441 144.999 134.167 144.999 133.894C144.999 133.403 145.11 132.919 145.222 132.44C145.277 132.223 145.327 132.006 145.372 131.788C145.607 130.726 145.772 129.933 145.968 128.88C144.502 126.648 142.706 124.06 142.19 123.238L141.274 123.201L141.273 123.201Z" fill="#3D8DCC"/>
<path d="M108.869 195.718C109.101 190.195 109.519 182.211 109.629 177.461C109.846 168.673 110.553 159.609 110.728 151.031C107.963 148.276 106.534 146.156 103.989 143.228C101.843 140.758 99.6843 137.988 97.3369 136.062C96.2119 135.139 95.0173 134.299 93.7744 133.526L98.9443 130.268C103.882 126.831 114.832 123.162 120.235 122.388L123.223 121.916C124.158 121.087 125.095 120.361 125.936 119.822C128.094 129.412 131.921 139.755 134.955 149.08C137.324 156.36 138.018 158.572 141.302 166.622C144.213 159.125 145.478 156.248 147.849 148.989C150.89 139.679 154.727 129.35 156.885 119.78C157.701 120.27 158.628 120.957 159.566 121.759C161.305 122.007 162.396 122.162 162.396 122.162C169.533 123.175 177.257 125.869 183.306 129.084C183.306 129.084 186.26 130.619 189.308 132.2C187.364 133.307 185.54 134.483 183.95 135.708C180.117 138.664 174.076 147.666 171.226 150.631C171.226 150.631 170.953 150.96 170.576 151.413C170.833 159.682 171.503 169.41 171.702 177.46C171.811 182.209 172.23 190.194 172.462 195.716H108.868L108.869 195.718Z" fill="#B3B3B3"/>
<path d="M85.6936 124.432C86.9816 124.718 89.2343 124.643 90.3014 124.605C94.1189 124.467 97.1212 122.485 98.2514 119.473C99.6656 115.704 98.0473 111.092 98.6687 107.114L98.4968 95.4366C99.4113 92.6863 99.8666 90.5545 99.9413 87.9278C100.168 79.9061 97.0079 74.2049 93.3024 70.4066L90.1532 67.6717C86.5173 64.9799 82.2013 63.1446 76.641 62.7444C70.8084 62.3249 65.7331 63.6756 61.5639 66.2514C56.7231 69.2422 51.0862 74.7848 49.9811 84.332C49.7171 86.6139 49.8285 89.2586 50.3501 91.9716L49.7184 103.52C48.9005 106.626 47.1102 109.622 47.1553 112.87C47.2693 114.3 47.9899 116.24 48.5212 116.949C51.0321 120.299 52.8147 120.959 55.0326 121.317L56.7855 123.537L83.7616 127.636L85.6936 124.432Z" fill="#645D5C"/>
<path d="M71.1671 82.6096C70.7414 84.9341 68.9788 89.7962 70.5283 89.4328C77.133 87.9616 82.5928 84.385 87.0389 79.1162C88.0719 85.4245 92.4394 94.757 95.0804 96.234C95.7927 95.6585 96.7091 95.4891 97.4773 95.5709C99.1485 95.7488 99.7983 96.6793 100.067 97.218C100.872 98.8252 100.63 101.663 99.8884 103.376C99.3636 104.59 98.5135 106.442 96.6968 107.683C95.9479 108.195 94.8788 108.491 93.8935 108.256L93.634 108.194C93.2437 109.185 92.782 110.151 92.509 110.616C91.6228 112.526 86.7626 119.425 81.2675 121.125C81.0652 122.771 81.0298 124.435 81.1393 126.083C81.1779 126.599 81.2295 127.121 81.4033 127.604C81.5837 128.1 82.3661 128.835 83.2606 129.48L86.2835 131.395C86.2835 131.395 84.403 133.567 83.2245 134.241C81.7221 135.1 79.3612 136.084 79.3612 136.084C76.0144 137.292 71.4801 137.454 68.0927 136.856C64.7053 136.258 61.4866 134.903 58.4895 133.213C58.4895 133.213 56.1737 131.415 55.3449 130.16C54.1909 128.415 53.4574 125.972 53.4574 125.972L56.8918 124.969C57.5293 124.808 61.4441 123.819 61.9529 123.407C62.3135 123.117 62.5776 122.724 62.8287 122.343C63.2344 121.731 63.7432 120.913 64.2584 120.036C61.6715 118.865 59.4722 116.89 57.454 114.173C55.1845 111.118 53.997 107.917 53.4026 105.294C52.3214 105.483 51.2002 105.018 50.4815 104.358C48.8606 102.868 48.2842 100.913 47.9384 99.6372C47.4502 97.8354 47.6157 94.9922 48.6422 93.5165C48.9861 93.0222 49.7621 92.1941 51.4417 92.2573C52.2467 92.2876 53.1734 92.6117 53.7987 93.3457C59.5579 89.8342 64.9964 86.1598 70.9662 82.3183" fill="white"/>
<path d="M96.5493 135.437C93.5329 133.126 90.0779 131.354 86.59 129.771C85.6285 128.665 84.622 127.685 83.7429 127.012C80.6891 135.019 76.5283 143.267 72.7062 150.943C69.8315 156.715 68.5918 158.889 65.3473 164.552C63.7676 158.477 62.9755 155.782 61.7397 149.567C60.0673 141.157 57.7933 131.769 56.9484 123.24C55.7339 123.736 54.2353 124.599 52.8037 125.617C50.0931 126.478 47.304 127.095 44.4821 127.462C41.2215 128.305 37.6448 130.458 35.6298 132.464C32.8464 135.236 30.0631 138.006 27.2804 140.777L22.9174 140.963C16.4195 141.474 9.81476 142.452 3.24348 143.715C2.22146 143.911 1.46542 144.788 1.42936 145.83C1.09384 155.516 3.25893 169.238 6.57291 174.709C8.1816 177.365 10.708 179.761 13.3213 179.665C17.2206 179.522 19.3445 177.975 22.4911 175.666C25.7947 173.241 29.3798 169.687 33.5297 165.284L34.0359 164.747C33.1562 168.464 32.3873 171.422 31.8669 172.975C30.3555 177.472 23.9613 186.442 19.1706 192.857C18.2568 194.015 19.0786 195.718 20.5533 195.718C38.5818 195.718 84.7379 195.718 84.7379 195.718C86.2654 186.354 88.4724 173.382 90.3818 163.04C96.5822 167.208 102.616 172.143 108.7 176.91L109.626 177.549C109.627 177.52 109.627 177.491 109.628 177.462C109.845 168.673 110.552 159.61 110.728 151.032C107.963 148.277 106.534 146.157 103.989 143.228C101.842 140.758 99.6836 137.988 97.3363 136.062C97.0774 135.849 96.8146 135.642 96.5487 135.437L96.5493 135.437Z" fill="white"/>
<path d="M10.3242 110.541C9.75746 101.954 8.44307 82.3098 8.35871 73.324C8.35098 72.4759 9.00141 71.7922 9.84375 71.7033C13.9324 71.2734 17.2348 71.4049 21.5006 72.0087C25.0902 72.5165 29.707 73.5715 33.1498 74.9847C33.9928 75.3307 34.4255 76.2606 34.1138 77.1177C31.3408 84.7457 23.9285 103.255 20.8064 112.062L10.3235 110.541L10.3242 110.541Z" fill="#FFDA71"/>
<path d="M57.2356 126.212C58.5867 125.871 59.943 125.526 61.2651 125.084C62.0946 124.807 62.7791 124.524 63.3439 123.82C63.7644 123.296 64.1231 122.727 64.4793 122.159C64.6576 121.874 64.8328 121.588 65.006 121.301C65.2424 120.908 65.5476 120.508 65.5476 120.03C65.5476 119.356 64.9552 118.71 64.2597 118.741C63.5641 118.772 62.9717 119.308 62.9717 120.03V120.037L63.1475 119.386C62.8242 119.935 62.4945 120.48 62.1544 121.018C62.0115 121.245 61.8659 121.47 61.7178 121.693C61.6257 121.833 61.5343 121.974 61.4345 122.108C61.5594 121.939 61.3411 122.214 61.3186 122.238C61.2612 122.299 61.202 122.358 61.1395 122.415C61.2928 122.306 61.3334 122.276 61.2612 122.326C61.2323 122.334 61.2033 122.362 61.1762 122.375C61.1266 122.398 61.0751 122.422 61.0268 122.447C60.8536 122.538 61.3553 122.322 61.1479 122.396C60.8536 122.5 60.5619 122.608 60.2643 122.702C59.0408 123.09 57.7953 123.413 56.5511 123.727C55.8974 123.892 55.4402 124.66 55.6514 125.312C55.8704 125.988 56.5356 126.389 57.2356 126.212Z" fill="#211715"/>
<path d="M48.4761 103.178C47.8637 105.426 46.8178 107.533 46.2582 109.797C45.7127 112.003 45.8229 114.064 46.6852 116.17C48.0401 119.478 51.1886 121.979 54.69 122.56C55.3752 122.674 56.0765 122.38 56.2742 121.66C56.4435 121.043 56.0649 120.188 55.3745 120.074C54.1348 119.869 52.9905 119.532 51.9736 118.766C50.7475 117.843 49.5406 116.513 49.0022 115.06C48.7131 114.28 48.4387 113.431 48.4426 112.593C48.4471 111.601 48.6796 110.625 48.9617 109.679C49.5483 107.712 50.4197 105.844 50.9593 103.862C51.3959 102.259 48.9114 101.576 48.4755 103.177L48.4761 103.178Z" fill="#211715"/>
<path d="M85.3516 125.675C87.4903 126.11 89.9452 126.068 92.0942 125.702C94.2902 125.329 96.4669 124.24 97.9146 122.518C99.5716 120.548 100.138 118.104 100.139 115.57C100.139 112.88 99.5259 110.141 99.9116 107.458C100.011 106.769 99.7422 106.073 99.012 105.872C98.4073 105.706 97.5276 106.079 97.4278 106.773C97.0697 109.263 97.3898 111.708 97.5224 114.201C97.637 116.353 97.592 118.656 96.2692 120.467C95.168 121.974 93.4389 122.824 91.6421 123.174C90.7747 123.343 89.8737 123.34 88.9928 123.351C88.0139 123.364 87.0003 123.385 86.0368 123.189C84.4185 122.861 83.7262 125.345 85.3523 125.675L85.3516 125.675Z" fill="#211715"/>
<path d="M155.677 60.7681C151.801 58.2613 147.287 56.6702 141.599 56.6213C135.632 56.5697 130.551 58.2723 126.47 61.1638C121.733 64.5212 116.349 70.5292 115.838 80.3231C115.711 82.7706 116.027 85.5951 116.805 88.4512C117.102 88.3649 117.444 88.3094 117.837 88.2998C118.625 88.2798 119.543 88.5266 120.221 89.1698L123.626 86.4432C126.187 83.7205 130.701 79.622 133.858 78.0496C134.229 77.8653 134.699 78.1231 134.844 78.7224C134.983 79.3011 134.978 79.7399 134.928 80.1543C134.851 80.7839 135.477 81.2479 136.015 80.9637C138.269 79.7734 142.288 77.373 145.133 76.2381L149.333 76.7756C150.681 77.3581 151.706 77.9162 153.184 79.1728C155.717 81.3258 158.138 84.2709 159.199 86.9265L162.532 89.5364C163.22 88.9049 164.143 88.6736 164.93 88.7077C165.295 88.7232 165.615 88.7767 165.894 88.8578L165.959 88.5054C166.713 85.646 167.041 83.4453 166.947 80.7652C166.659 72.5043 163.009 66.874 158.945 63.2485L155.675 60.7681H155.677Z" fill="#645D5C"/>
<path d="M85.9808 196.06C87.7615 185.151 89.6194 174.253 91.6248 163.383L89.7327 164.153C95.9975 168.376 101.849 173.164 107.791 177.82C108.338 178.249 109.079 178.355 109.612 177.82C110.058 177.374 110.163 176.429 109.612 175.998C103.499 171.207 97.4786 166.272 91.0329 161.927C90.3819 161.488 89.2871 161.905 89.1409 162.697C87.1355 173.567 85.2776 184.466 83.497 195.374C83.3849 196.061 83.6753 196.762 84.3966 196.96C85.0116 197.129 85.8681 196.75 85.9808 196.059V196.06Z" fill="#211715"/>
<path d="M272.666 132.843C272.26 132.314 271.766 131.77 271.475 131.59C269.029 130.084 266.905 128.762 264.559 127.616C264.058 127.371 263.364 127.11 262.837 126.926C261.89 126.596 260.814 126.655 259.908 127.087C259.139 127.453 258.121 128.837 258.4 129.791L256.314 130.053C255.719 129.958 255.183 129.638 254.596 129.508C253.362 129.233 252.061 129.852 251.211 130.789C250.362 131.725 249.885 132.935 249.484 134.135C249.182 135.038 249.172 136.125 249.437 137.074C249.639 137.801 250.163 138.187 250.705 138.39C251.247 138.593 252.297 138.719 253.319 138.115L253.156 139.594C252.885 139.822 252.582 140.332 252.409 140.661C251.944 141.609 252.259 142.964 252.976 143.702C253.366 144.104 255.126 145.839 255.725 146.261L256.837 145.06C257.902 145.94 258.749 147.051 258.856 148.167C259.563 154.281 261.067 156.779 263.478 157.446C265.446 157.991 268.025 158.011 269.324 157.689C269.849 157.559 272.222 156.878 272.568 156.463C273.247 155.645 274 155.041 274.271 153.956C274.494 153.063 274.424 152.106 274.264 151.209C274.069 150.119 273.739 147.347 273.609 145.503C273.448 143.53 273.486 139.873 273.823 138.155C274.159 136.438 273.859 134.891 273.231 133.688C273.114 133.463 272.905 133.155 272.667 132.843H272.666Z" fill="white"/>
<path d="M22.918 139.675C19.2602 139.967 15.6145 140.396 11.9837 140.928C10.1001 141.203 8.22089 141.508 6.34559 141.838C5.50969 141.985 4.67444 142.137 3.83982 142.294C3.049 142.443 2.28845 142.569 1.62063 143.05C0.287573 144.011 0.136235 145.426 0.113695 146.948C0.0937316 148.283 0.117559 149.619 0.175518 150.953C0.302385 153.895 0.594112 156.827 1.00691 159.742C1.70822 164.692 2.66647 169.921 4.94298 174.422C6.173 176.854 8.14039 179.286 10.6861 180.397C13.2988 181.537 16.4826 180.774 18.9369 179.543C21.6603 178.177 24.1616 176.118 26.4407 174.115C29.2594 171.638 31.8669 168.924 34.4403 166.196C35.5776 164.99 33.7596 163.164 32.6191 164.374C28.7513 168.474 24.8082 172.52 20.1734 175.76C18.1268 177.191 15.9977 178.272 13.4559 178.372C10.8774 178.474 8.84621 176.009 7.6471 173.997C6.68819 172.389 6.06868 170.597 5.53545 168.809C4.8335 166.456 4.3138 164.049 3.89521 161.63C3.01423 156.542 2.55893 151.329 2.7064 146.164C2.72121 145.656 2.81781 145.247 3.32334 145.029C4.08583 144.699 5.11621 144.67 5.93279 144.522C7.80809 144.182 9.68726 143.866 11.5716 143.579C15.337 143.005 19.1198 142.557 22.9168 142.254C24.5583 142.124 24.5725 139.545 22.9168 139.677L22.918 139.675Z" fill="#211715"/>
<path d="M79.9485 121.392C79.7637 123.1 79.7019 124.865 79.8964 126.575C80.0001 127.484 80.1868 128.244 80.7651 128.968C81.2771 129.607 81.9533 130.113 82.6108 130.592C83.1569 130.99 84.0707 130.703 84.3728 130.129C84.7263 129.46 84.4938 128.792 83.9104 128.366C83.7436 128.244 83.7004 128.215 83.5845 128.118C83.4416 128 83.2999 127.88 83.1633 127.754C83.0693 127.667 82.9766 127.578 82.8871 127.486C82.8439 127.442 82.5464 127.067 82.7261 127.324C82.6765 127.253 82.406 126.926 82.6456 127.26C82.5747 127.162 82.5548 126.97 82.5284 126.857C82.5078 126.766 82.4891 126.674 82.4743 126.581C82.4852 126.691 82.482 126.666 82.4646 126.504C82.4472 126.338 82.4344 126.171 82.4228 126.004C82.321 124.467 82.3584 122.922 82.5245 121.39C82.5973 120.718 81.8799 120.073 81.2365 120.102C80.4766 120.136 80.0265 120.67 79.9485 121.39V121.392Z" fill="#211715"/>
<path d="M11.6121 110.541C11.2109 104.466 10.8136 98.3909 10.462 92.3133C10.2617 88.8547 10.0743 85.3948 9.9191 81.9336C9.79416 79.1484 9.59839 76.3342 9.64862 73.5451C9.66086 72.8724 10.1335 72.9581 10.7292 72.9059C11.8504 72.8079 12.9755 72.7499 14.1012 72.7409C16.2676 72.7229 18.4314 72.8917 20.5791 73.172C22.6147 73.4375 24.6356 73.821 26.6313 74.3004C28.5787 74.7683 30.624 75.267 32.4588 76.0874C33.0384 76.3464 32.9334 76.6081 32.7344 77.1526C32.5302 77.71 32.3235 78.2662 32.1155 78.8223C31.6383 80.0963 31.1547 81.3671 30.6678 82.6373C29.5009 85.6835 28.3198 88.7239 27.1407 91.7649C24.5686 98.3967 21.945 105.016 19.5654 111.719C19.0097 113.285 21.4974 113.959 22.0493 112.404C24.2878 106.098 26.7479 99.8679 29.1673 93.6292C30.4283 90.3775 31.6924 87.1264 32.9418 83.8701C33.4608 82.5181 33.9773 81.1648 34.4867 79.8083C34.9613 78.5439 35.7779 77.0837 35.3825 75.713C34.7874 73.6489 32.0505 73.1495 30.2686 72.6107C28.1614 71.9734 26.0098 71.4753 23.8435 71.0873C19.416 70.294 14.9242 69.937 10.4375 70.3553C9.46315 70.4461 8.58217 70.586 7.87185 71.3174C7.16153 72.0488 7.06429 72.9613 7.07845 73.9247C7.09842 75.3134 7.13963 76.7022 7.18858 78.0903C7.30965 81.5231 7.4803 84.954 7.66642 88.3836C8.06698 95.7732 8.54997 103.158 9.03747 110.541C9.14631 112.188 11.7229 112.2 11.6134 110.541L11.6121 110.541Z" fill="#211715"/>
<path d="M28.1917 141.689C30.3729 139.517 32.5547 137.345 34.7359 135.174C36.6363 133.282 38.4627 131.583 40.8442 130.304C41.957 129.706 43.1117 129.211 44.3211 128.845C45.7005 128.429 47.2274 128.354 48.6423 128.053C51.4623 127.453 54.2192 126.598 56.8931 125.518C57.5377 125.258 57.9924 124.659 57.7927 123.933C57.6246 123.321 56.857 122.771 56.2085 123.033C53.4432 124.149 50.5877 125.026 47.666 125.628C46.2537 125.92 44.7583 126.006 43.3834 126.438C42.0587 126.853 40.7669 127.422 39.5446 128.079C37.0807 129.403 35.1081 131.167 33.1401 133.127C30.8836 135.373 28.627 137.62 26.3705 139.867C25.1939 141.038 27.0151 142.862 28.1917 141.689V141.689Z" fill="#211715"/>
<path d="M274.177 151.927C274.456 151.94 275.144 151.829 275.375 151.968C275.387 151.976 275.577 152.415 275.645 152.587C275.999 153.477 276.278 154.4 276.514 155.326C276.973 157.123 277.211 158.971 277.336 160.82C277.587 164.515 277.431 168.406 276.641 172.034C275.917 175.357 274.203 178.624 271.31 180.55C269.99 181.429 268.49 181.987 266.887 181.892C265.252 181.794 263.694 180.845 262.426 179.865C260.636 178.482 259.346 176.427 258.013 174.628C256.535 172.632 255.104 170.602 253.716 168.541C252.794 167.173 250.562 168.461 251.492 169.842C252.937 171.988 254.43 174.102 255.974 176.178C257.335 178.01 258.646 180.065 260.413 181.533C261.958 182.817 263.838 184.005 265.847 184.347C267.826 184.684 269.794 184.29 271.572 183.385C275.293 181.493 277.833 177.621 278.894 173.671C279.428 171.683 279.645 169.615 279.817 167.569C280.003 165.366 280.063 163.171 279.921 160.963C279.765 158.544 279.443 156.108 278.762 153.778C278.439 152.672 278.103 151.237 277.352 150.341C276.517 149.343 275.366 149.408 274.177 149.35C272.52 149.271 272.524 151.848 274.177 151.928L274.177 151.927Z" fill="#211715"/>
<path d="M249.832 129.93C243.333 127.763 236.978 125.045 230.638 122.456C229.994 122.193 229.223 122.742 229.054 123.356C228.851 124.095 229.307 124.677 229.954 124.942C236.293 127.531 242.648 130.249 249.147 132.416C250.724 132.942 251.399 130.453 249.832 129.93Z" fill="#211715"/>
<path d="M259.641 129.523C259.657 128.567 260.656 128.029 261.494 128.004C262.718 127.969 264.018 128.765 265.066 129.317C266.265 129.948 267.434 130.633 268.593 131.335C269.204 131.705 269.812 132.079 270.42 132.454C270.675 132.612 270.772 132.661 270.894 132.771C271.086 132.945 271.261 133.149 271.428 133.347C272.037 134.074 272.443 134.88 272.604 135.823C272.787 136.899 272.531 137.935 272.408 138.999C272.168 141.056 272.164 143.174 272.301 145.239C272.441 147.351 272.688 149.463 273.021 151.552C273.201 152.682 273.202 153.752 272.442 154.663C272.267 154.873 272.075 155.07 271.894 155.277C271.815 155.368 271.74 155.464 271.657 155.552C271.83 155.368 271.801 155.457 271.701 155.517C271.422 155.685 271.158 155.771 270.846 155.881C269.098 156.495 267.486 156.718 265.623 156.538C265.056 156.483 264.491 156.383 263.94 156.235C263.783 156.193 263.629 156.149 263.477 156.094C263.309 156.034 263.51 156.139 263.24 155.98C262.787 155.714 262.462 155.447 262.191 155.095C260.947 153.476 260.58 151.194 260.284 149.235C260.072 147.832 259.932 146.667 259.044 145.505C258.156 144.343 256.96 143.427 255.665 142.759C254.193 142.002 252.888 144.225 254.364 144.985C255.507 145.574 256.697 146.386 257.322 147.547C257.625 148.108 257.637 148.753 257.722 149.373C257.823 150.103 257.94 150.83 258.091 151.551C258.496 153.497 259.132 155.513 260.469 157.031C261.821 158.565 263.801 158.955 265.753 159.129C267.884 159.319 269.883 159 271.871 158.244C274.223 157.349 275.793 154.98 275.693 152.446C275.648 151.295 275.38 150.146 275.243 149.002C275.089 147.721 274.954 146.437 274.871 145.15C274.729 142.962 274.707 140.666 275.065 138.499C275.518 135.748 274.888 133.266 272.977 131.215C271.921 130.082 270.326 129.36 269.008 128.578C267.49 127.679 265.943 126.78 264.307 126.109C262.696 125.45 261.024 125.124 259.385 125.919C258.063 126.561 257.091 128.052 257.067 129.523C257.039 131.182 259.615 131.182 259.643 129.523H259.641Z" fill="#211715"/>
<path d="M265.678 132.728C264.183 131.924 262.665 131.159 261.142 130.41C260.612 130.149 260.059 129.832 259.489 129.667C258.125 129.274 256.638 129.744 255.764 130.861C254.788 132.108 254.639 133.892 255.447 135.266C255.799 135.865 256.607 136.081 257.209 135.729C257.81 135.377 258.025 134.567 257.671 133.966C257.63 133.899 257.592 133.831 257.559 133.761C257.609 133.886 257.609 133.877 257.559 133.732C257.535 133.654 257.515 133.574 257.499 133.493C257.51 133.609 257.511 133.619 257.503 133.525C257.492 133.376 257.49 133.225 257.504 133.076C257.482 133.302 257.555 132.891 257.571 132.838C257.589 132.774 257.611 132.711 257.636 132.649C257.6 132.752 257.616 132.733 257.683 132.591C257.723 132.521 257.767 132.454 257.815 132.389C257.737 132.494 257.746 132.49 257.843 132.378C257.89 132.34 258.152 132.155 257.942 132.284C258.006 132.242 258.072 132.202 258.141 132.167C258.009 132.215 258.013 132.213 258.155 132.163C258.215 132.147 258.546 132.083 258.274 132.114C258.331 132.108 258.791 132.133 258.549 132.095C258.682 132.116 258.803 132.169 258.933 132.195C259.116 132.231 258.584 132.032 258.745 132.113C258.984 132.233 259.232 132.339 259.472 132.456C261.122 133.258 262.762 134.087 264.378 134.955C264.99 135.285 265.78 135.109 266.14 134.493C266.482 133.907 266.292 133.06 265.677 132.73L265.678 132.728Z" fill="#211715"/>
<path d="M261.813 135.705C260.441 135.081 259.009 134.512 257.555 134.113C256.876 133.928 256.188 133.691 255.478 133.787C254.72 133.889 253.998 134.262 253.483 134.833C252.407 136.029 252.286 137.947 253.321 139.217C253.972 140.015 255.014 140.567 255.938 141.004C256.951 141.484 257.986 141.919 259.018 142.36C259.635 142.624 260.428 142.566 260.78 141.897C261.072 141.344 260.979 140.417 260.317 140.134C258.816 139.492 257.277 138.898 255.892 138.026C255.784 137.958 255.681 137.884 255.573 137.816C255.528 137.788 255.382 137.667 255.574 137.825C255.533 137.791 255.493 137.758 255.453 137.723C255.447 137.717 255.197 137.475 255.203 137.47C255.2 137.473 255.363 137.675 255.255 137.515C255.129 137.33 255.291 137.678 255.261 137.534C255.26 137.524 255.165 137.209 255.179 137.205C255.208 137.198 255.189 137.466 255.189 137.25C255.189 137.183 255.183 137.117 255.184 137.05C255.184 137.002 255.191 136.951 255.189 136.903C255.182 136.729 255.111 137.113 255.179 136.962C255.194 136.928 255.203 136.866 255.209 136.829C255.248 136.58 255.107 136.982 255.19 136.854C255.248 136.765 255.4 136.546 255.24 136.732C255.329 136.629 255.428 136.542 255.523 136.444C255.509 136.457 255.34 136.561 255.461 136.494C255.518 136.462 255.571 136.422 255.629 136.391C255.672 136.367 255.716 136.347 255.759 136.324C255.511 136.458 255.681 136.357 255.765 136.34C256.094 136.273 255.6 136.335 255.834 136.329C256.104 136.322 255.751 136.319 255.762 136.308C255.77 136.3 255.947 136.354 255.938 136.352C256.212 136.422 256.486 136.494 256.759 136.568C257.41 136.744 258.049 136.945 258.676 137.193C259.032 137.333 259.389 137.47 259.746 137.611C259.899 137.671 260.053 137.733 260.207 137.796C260.444 137.892 260.268 137.821 260.22 137.8C260.318 137.843 260.417 137.887 260.514 137.931C261.126 138.209 261.929 138.127 262.276 137.468C262.575 136.903 262.469 136.003 261.814 135.705H261.813Z" fill="#211715"/>
<path d="M255.366 137.908C254.191 137.73 252.971 137.882 252.119 138.806C251.396 139.589 250.889 140.627 250.902 141.706C250.914 142.785 251.336 143.844 252.077 144.626C252.468 145.039 252.886 145.432 253.298 145.825C253.865 146.367 254.437 146.914 255.075 147.374C255.624 147.769 256.533 147.487 256.837 146.911C257.19 146.245 256.961 145.57 256.375 145.148C256.148 144.984 256.606 145.347 256.437 145.197C256.391 145.156 256.341 145.118 256.294 145.078C256.162 144.966 256.034 144.852 255.905 144.736C255.628 144.485 255.357 144.229 255.087 143.971C254.648 143.552 254.236 143.097 253.791 142.686C253.731 142.616 253.749 142.639 253.845 142.758C253.808 142.704 253.773 142.65 253.738 142.594C253.687 142.509 253.644 142.42 253.598 142.331C253.738 142.599 253.604 142.337 253.58 142.262C253.551 142.173 253.456 141.96 253.481 141.867L253.497 142.009C253.489 141.942 253.483 141.875 253.48 141.807C253.476 141.707 253.483 141.607 253.482 141.506C253.496 141.358 253.492 141.374 253.472 141.555C253.483 141.491 253.498 141.427 253.515 141.364C253.539 141.276 253.67 141.046 253.521 141.311C253.639 141.102 253.763 140.899 253.888 140.695C254.024 140.475 253.749 140.805 253.94 140.629C253.996 140.578 254.178 140.459 253.979 140.575C254.01 140.557 254.35 140.363 254.182 140.442C254.013 140.522 254.362 140.37 254.404 140.387C254.243 140.404 254.212 140.408 254.312 140.4C254.363 140.396 254.415 140.393 254.467 140.393C254.526 140.392 254.974 140.439 254.681 140.394C255.344 140.495 256.098 140.227 256.265 139.494C256.405 138.88 256.077 138.017 255.365 137.909L255.366 137.908Z" fill="#211715"/>
<path d="M256.656 128.81C255.996 128.685 255.404 128.336 254.739 128.23C254.025 128.115 253.297 128.145 252.607 128.381C251.193 128.866 250.093 129.895 249.35 131.177C248.641 132.402 248.075 133.867 247.973 135.286C247.866 136.768 248.243 138.341 249.515 139.221C250.824 140.126 252.635 139.97 253.969 139.227C254.576 138.889 254.777 138.056 254.431 137.464C254.073 136.851 253.279 136.662 252.669 137.002C252.496 137.098 252.405 137.141 252.249 137.188C252.211 137.199 251.829 137.281 252.032 137.252C251.904 137.27 251.77 137.271 251.64 137.268C251.559 137.267 251.478 137.262 251.397 137.254C251.549 137.277 251.554 137.276 251.41 137.25C251.317 137.225 251.222 137.198 251.129 137.176C250.904 137.121 251.302 137.3 251.055 137.142C250.989 137.107 250.925 137.069 250.862 137.028C250.955 137.107 250.967 137.116 250.898 137.055C250.853 137.017 250.812 136.977 250.773 136.934C250.847 137.044 250.841 137.035 250.757 136.907C250.623 136.732 250.735 136.964 250.679 136.731C250.638 136.561 250.593 136.395 250.565 136.222C250.546 136.097 250.529 135.701 250.54 135.436C250.561 134.941 250.783 134.276 251.005 133.687C251.206 133.156 251.498 132.569 251.856 132.031C251.968 131.862 252.121 131.689 252.311 131.504C252.352 131.464 252.684 131.189 252.575 131.268C252.685 131.187 252.802 131.114 252.921 131.046C253.397 130.772 253.65 130.702 254.197 130.738C253.995 130.725 254.41 130.791 254.471 130.808C254.639 130.858 254.804 130.92 254.968 130.982C255.299 131.107 255.623 131.229 255.971 131.295C256.654 131.425 257.361 131.105 257.555 130.395C257.729 129.765 257.343 128.941 256.656 128.81L256.656 128.81Z" fill="#211715"/>
<path d="M200.089 125.731C194.383 127.981 188.641 130.597 183.706 134.289C180.041 137.032 177.311 140.952 174.534 144.54C173.175 146.295 171.85 148.111 170.316 149.721C169.173 150.921 170.991 152.747 172.138 151.543C175.078 148.457 177.458 144.825 180.166 141.539C181.475 139.95 182.825 138.339 184.397 136.999C186.481 135.223 188.966 133.826 191.369 132.535C194.41 130.901 197.564 129.482 200.774 128.216C201.421 127.961 201.872 127.353 201.674 126.631C201.504 126.014 200.74 125.474 200.089 125.73L200.089 125.731Z" fill="#211715"/>
<path d="M162.055 123.406C169.22 124.443 176.261 126.817 182.657 130.199C184.122 130.973 185.425 128.749 183.958 127.973C177.37 124.49 170.121 121.989 162.739 120.92C162.052 120.821 161.355 121.09 161.155 121.82C160.989 122.426 161.362 123.306 162.055 123.406Z" fill="#211715"/>
<path d="M188.324 168.792C183.015 172.701 177.893 176.843 172.795 181.021C172.257 181.463 172.338 182.386 172.795 182.844C173.328 183.377 174.077 183.286 174.616 182.844C179.545 178.805 184.492 174.797 189.624 171.018C190.184 170.606 190.464 169.9 190.086 169.255C189.764 168.702 188.888 168.378 188.324 168.792Z" fill="#211715"/>
<path d="M99.5948 131.381C102.708 129.236 106.328 127.795 109.87 126.532C113.336 125.296 116.927 124.167 120.577 123.631C121.266 123.53 121.645 122.658 121.477 122.046C121.274 121.307 120.584 121.045 119.893 121.146C116.165 121.692 112.496 122.855 108.961 124.127C105.296 125.445 101.52 126.933 98.2945 129.155C96.9376 130.089 98.2243 132.325 99.5948 131.381Z" fill="#211715"/>
<path d="M82.2482 129.262C87.5798 131.562 93.2734 133.921 97.5507 137.969C101.918 142.102 105.228 147.228 109.411 151.532C110.569 152.724 112.39 150.9 111.232 149.71C107.953 146.336 105.129 142.514 102.036 138.971C100.435 137.137 98.7376 135.458 96.778 134.009C94.9001 132.619 92.8773 131.435 90.8004 130.369C88.4325 129.153 85.9905 128.091 83.5478 127.037C82.9096 126.762 82.1665 126.848 81.7859 127.5C81.4677 128.044 81.6055 128.986 82.2482 129.263V129.262Z" fill="#211715"/>
<path d="M192.082 95.7817C190.607 94.6636 188.433 94.6372 186.842 95.5381C185.604 96.2393 184.897 97.5313 184.669 98.9046C184.13 102.144 185.193 105.485 187.236 108.017C188.634 109.749 190.649 110.854 192.906 110.413C193.589 110.279 193.98 109.462 193.805 108.827C193.61 108.113 192.906 107.793 192.221 107.927C190.729 108.219 189.439 106.82 188.711 105.695C187.929 104.488 187.404 103.296 187.188 101.891C187.004 100.695 186.978 99.241 187.633 98.2009C187.773 97.9785 187.519 98.3014 187.707 98.1107C187.768 98.0481 187.966 97.8651 187.968 97.8638C188.125 97.7485 188.456 97.6132 188.717 97.5487C189.479 97.3606 190.163 97.5378 190.782 98.0069C191.337 98.4277 192.223 98.0945 192.544 97.5442C192.93 96.883 192.638 96.2025 192.081 95.7811L192.082 95.7817Z" fill="#211715"/>
<path d="M234.566 95.0416C235.071 94.5428 235.756 94.3398 236.46 94.4223C236.769 94.4584 237.019 94.5312 237.272 94.6814C237.53 94.8341 237.442 94.7832 237.687 95.0384C237.873 95.2317 237.588 94.865 237.722 95.0803C237.807 95.2188 237.896 95.3516 237.969 95.4985C238.104 95.7698 238.192 96.0591 238.269 96.3524C238.464 97.0921 238.522 97.8493 238.504 98.6123C238.475 99.8864 238.121 101.2 237.575 102.351C236.915 103.741 235.84 105.263 234.132 105.16C232.476 105.061 232.482 107.639 234.132 107.738C237.899 107.964 240.018 104.003 240.795 100.863C241.461 98.1793 241.239 93.9448 238.508 92.4194C236.666 91.3903 234.234 91.7486 232.744 93.2192C231.563 94.3862 233.384 96.2086 234.566 95.0416H234.566Z" fill="#211715"/>
<path d="M232.918 104.549C232.427 107.877 231.293 110.368 229.539 113.137C227.645 116.127 225.029 119.424 221.5 120.475C219.915 120.946 220.59 123.435 222.184 122.96C226.271 121.744 229.31 118.215 231.557 114.758C233.429 111.879 234.898 108.655 235.402 105.234C235.503 104.547 235.231 103.849 234.502 103.649C233.896 103.482 233.02 103.856 232.918 104.549Z" fill="#211715"/>
<path d="M191.025 107.904C193.445 115.845 200.08 123.618 208.784 124.314C210.436 124.446 210.428 121.868 208.784 121.737C204.977 121.432 201.766 119.364 199.133 116.706C196.501 114.047 194.595 110.779 193.509 107.218C193.027 105.636 190.54 106.311 191.025 107.903V107.904Z" fill="#211715"/>
<path d="M225.342 64.8342C217.457 60.5682 207.648 60.3858 199.599 64.3728C193.078 67.6027 187.924 73.7659 186.018 80.7992C184.622 85.9533 184.922 91.3638 186.604 96.409C187.126 97.975 189.614 97.3035 189.088 95.724C187.704 91.5752 187.274 87.2215 188.161 82.9161C188.863 79.5142 190.327 76.3108 192.45 73.5604C196.918 67.7741 203.666 64.4437 210.941 64.1086C215.535 63.8972 219.995 64.8703 224.043 67.0601C225.501 67.8488 226.803 65.6243 225.342 64.8342Z" fill="#211715"/>
<path d="M238.239 93.1915C238.751 90.3947 239.003 87.6082 238.666 84.7747C238.359 82.1886 237.755 79.6735 236.745 77.2698C235.087 73.3259 232.43 69.8847 229.048 67.269C228.498 66.8437 227.762 66.7328 227.227 67.269C226.784 67.7123 226.673 68.6635 227.227 69.0914C230.301 71.4693 232.768 74.5091 234.315 78.0888C236.29 82.6578 236.645 87.6469 235.756 92.5065C235.459 94.1285 237.942 94.8238 238.24 93.1915H238.239Z" fill="#211715"/>
<path d="M209.949 113.229C211.348 113.834 212.784 114.071 214.314 113.952C215.822 113.836 217.354 113.475 218.522 112.465C219.034 112.022 219.009 111.089 218.522 110.642C217.978 110.141 217.247 110.17 216.701 110.642C216.476 110.837 216.917 110.502 216.749 110.609C216.668 110.66 216.592 110.717 216.509 110.766C216.422 110.819 216.332 110.868 216.24 110.914C216.218 110.926 216.077 111.009 216.053 111.002C216.102 111.016 216.354 110.887 216.118 110.973C215.823 111.08 215.525 111.172 215.219 111.241C215.116 111.263 215.014 111.284 214.911 111.303C214.879 111.308 214.579 111.359 214.749 111.332C214.922 111.305 214.598 111.35 214.566 111.353C214.439 111.366 214.311 111.376 214.184 111.384C213.765 111.412 213.343 111.417 212.924 111.39C212.839 111.385 212.753 111.379 212.667 111.37C212.618 111.366 212.57 111.361 212.521 111.355C212.421 111.343 212.457 111.348 212.631 111.371C212.52 111.393 212.323 111.319 212.212 111.296C211.964 111.243 211.719 111.174 211.48 111.09C211.395 111.06 211.31 111.026 211.226 110.994C210.952 110.888 211.558 111.138 211.249 111.004C210.632 110.737 209.839 110.8 209.487 111.466C209.194 112.022 209.289 112.944 209.95 113.229L209.949 113.229Z" fill="#211715"/>
<path d="M212.869 103.341C212.985 103.68 213.094 104.022 213.197 104.367C213.304 104.722 213.428 105.091 213.479 105.46L213.434 105.117C213.441 105.19 213.443 105.26 213.434 105.333L213.48 104.99C213.474 105.024 213.466 105.055 213.454 105.088L213.584 104.78C213.57 104.811 213.555 104.836 213.536 104.864L213.738 104.603C213.723 104.62 213.708 104.637 213.691 104.65L213.951 104.448C213.875 104.503 213.792 104.546 213.707 104.584L214.014 104.454C213.929 104.487 213.844 104.511 213.753 104.524L214.096 104.478C213.929 104.495 213.77 104.464 213.606 104.453C213.289 104.432 212.914 104.611 212.695 104.831C212.471 105.054 212.303 105.421 212.318 105.742C212.332 106.075 212.442 106.421 212.695 106.653C212.956 106.893 213.25 107.007 213.606 107.031C213.741 107.04 213.875 107.067 214.013 107.062C214.42 107.046 214.776 106.944 215.134 106.748C215.543 106.523 215.866 106.137 215.965 105.675C216.047 105.295 216.013 104.93 215.921 104.556C215.762 103.914 215.568 103.281 215.354 102.655C215.245 102.336 215.059 102.058 214.762 101.885C214.486 101.723 214.079 101.655 213.77 101.755C213.458 101.856 213.157 102.049 213 102.347C212.844 102.643 212.758 103.012 212.87 103.34L212.869 103.341Z" fill="#211715"/>
<path d="M201.649 98.3137C201.371 99.4395 201.765 101.961 203.932 102.036C206.775 101.833 206.726 98.7564 205.674 97.3767C204.813 96.2476 202.475 95.9074 201.649 98.313L201.649 98.3137Z" fill="#211715"/>
<path d="M224.429 96.8216C224.851 97.9016 224.789 100.453 222.651 100.81C219.805 100.979 219.453 97.9223 220.317 96.4175C221.024 95.1854 223.296 94.5436 224.429 96.8216Z" fill="#211715"/>
<path d="M78.1885 1.63466C83.2825 14.1274 88.3758 26.6202 93.4698 39.113C93.7325 39.7568 94.3263 40.213 95.054 40.0133C95.6639 39.8457 96.2177 39.0763 95.9537 38.428C90.8597 25.9352 85.7664 13.4424 80.6724 0.949642C80.4097 0.305864 79.8159 -0.150387 79.0882 0.049384C78.4783 0.216934 77.9245 0.986375 78.1885 1.63466Z" fill="#211715"/>
<path d="M32.4742 21.4204C37.818 27.9484 43.3338 34.3417 48.8605 40.7144C50.4654 42.5645 52.076 44.4102 53.7001 46.2442C54.802 47.4886 56.6181 45.6597 55.5213 44.4218C49.5013 37.6231 43.6011 30.7142 37.7594 23.7616C36.5983 22.3793 35.4391 20.9951 34.2961 19.598C33.2451 18.3136 31.4309 20.147 32.4742 21.4204Z" fill="#211715"/>
<path d="M203.291 0.949005C198.197 13.4418 193.104 25.9346 188.01 38.4273C187.747 39.0724 188.295 39.8438 188.91 40.0126C189.647 40.2156 190.23 39.7594 190.494 39.1124C195.588 26.6196 200.681 14.1268 205.775 1.63403C206.038 0.988959 205.49 0.217585 204.876 0.0487465C204.138 -0.154247 203.555 0.302005 203.291 0.949005Z" fill="#211715"/>
<path d="M249.668 19.5982C244.325 26.1262 238.809 32.5195 233.282 38.8922C231.677 40.7424 230.067 42.588 228.442 44.422C227.346 45.66 229.162 47.4895 230.264 46.2445C236.284 39.4458 242.184 32.5369 248.026 25.5843C249.187 24.202 250.346 22.8178 251.489 21.4206C252.531 20.1473 250.719 18.3132 249.668 19.5982H249.668Z" fill="#211715"/>
<path d="M54.6313 92.3454C53.3517 91.0656 51.3129 90.6003 49.6043 91.2409C48.2223 91.7596 47.3761 92.8429 46.8873 94.2046C45.8376 97.1315 46.4597 100.686 48.0182 103.323C49.1123 105.174 50.9065 106.735 53.1753 106.614C54.8245 106.526 54.8348 103.948 53.1753 104.037C51.5157 104.125 50.4692 102.625 49.8452 101.267C49.3242 100.133 48.9861 98.8579 48.9662 97.6097C48.9539 96.8628 49.0177 96.1262 49.2115 95.4032C49.2881 95.1177 49.377 94.838 49.5103 94.5758C49.5824 94.434 49.6681 94.3 49.7557 94.1678C49.909 93.9365 49.5586 94.3618 49.7872 94.133C50.0294 93.8907 49.9148 93.9533 50.1923 93.7915C50.3688 93.6884 50.6669 93.5769 50.9561 93.5473C51.6497 93.4757 52.3155 93.6736 52.8095 94.1678C53.9835 95.342 55.806 93.5202 54.6313 92.3454Z" fill="#211715"/>
<path d="M95.7308 97.3467C96.3355 96.895 96.9969 96.7268 97.7381 96.9201C98.0106 96.991 98.2495 97.0831 98.4807 97.2494C98.3596 97.1624 98.6365 97.3995 98.6694 97.4305C98.7106 97.4723 98.7499 97.5162 98.7872 97.5619C98.7106 97.4595 98.6977 97.4446 98.7486 97.5168C99.3964 98.5028 99.3765 99.9772 99.1813 101.159C98.9572 102.516 98.4704 103.621 97.7143 104.796C96.9956 105.912 95.7167 107.313 94.2368 107.014C93.5554 106.876 92.8457 107.211 92.6526 107.915C92.478 108.551 92.867 109.361 93.5522 109.5C97.2751 110.253 99.7841 106.903 101.066 103.874C101.701 102.375 101.974 100.649 101.822 99.0261C101.694 97.6599 101.299 96.2608 100.208 95.349C98.6269 94.0266 96.1011 93.8726 94.4313 95.1209C93.8749 95.5365 93.5902 96.2357 93.9689 96.884C94.2896 97.433 95.1706 97.7656 95.7308 97.3467Z" fill="#211715"/>
<path d="M92.8883 106.406C92.0536 109.277 90.4527 111.857 88.5246 114.117C86.2107 116.828 83.2374 119.628 79.577 120.188C78.8885 120.294 78.5086 121.159 78.6773 121.774C78.8795 122.51 79.5712 122.78 80.2615 122.674C84.3212 122.053 87.773 118.954 90.3458 115.939C92.5714 113.331 94.4074 110.409 95.3721 107.091C95.8358 105.494 93.3513 104.813 92.8883 106.406Z" fill="#211715"/>
<path d="M51.8615 104.067C53.1205 111.919 58.5365 120.389 66.7248 122.194C68.3406 122.55 69.0303 120.065 67.4094 119.708C60.0428 118.085 55.4679 110.386 54.3454 103.382C54.2353 102.694 53.3788 102.311 52.7612 102.482C52.0296 102.683 51.7508 103.377 51.8615 104.067Z" fill="#211715"/>
<path d="M90.803 66.5599C83.79 61.4129 74.1675 59.9339 65.9257 62.7784C59.147 65.1177 53.3724 70.3388 50.5781 76.9673C48.5186 81.8527 48.1399 87.1266 49.1085 92.3149C49.4125 93.9433 51.8957 93.2538 51.5924 91.6299C50.1846 84.0875 52.3014 76.2623 57.7966 70.8279C63.0425 65.6397 70.1908 63.3719 77.4943 64.1079C81.8773 64.5493 85.9609 66.1855 89.5035 68.7857C90.065 69.1975 90.9402 68.8798 91.2654 68.323C91.6473 67.6696 91.3659 66.9723 90.803 66.5599Z" fill="#211715"/>
<path d="M99.739 95.7796C101.399 90.7337 101.744 85.4082 100.366 80.2432C99.2837 76.1878 97.1257 72.5043 94.2136 69.4955C93.0583 68.302 91.2377 70.1257 92.3924 71.3179C95.0025 74.0142 96.9145 77.2937 97.8818 80.9282C98.4659 83.1212 98.7009 85.3721 98.6603 87.6386C98.6146 90.2137 98.0576 92.6554 97.2552 95.0939C96.7355 96.6734 99.2226 97.35 99.739 95.7789V95.7796Z" fill="#211715"/>
<path d="M69.6402 111.715C70.8818 112.469 72.2535 112.809 73.6961 112.913C75.0645 113.011 76.6397 112.878 77.824 112.109C78.3888 111.742 78.6754 110.95 78.2864 110.346C77.9226 109.782 77.1285 109.492 76.5245 109.883C76.3854 109.974 76.2121 110.028 76.0801 110.122C76.1265 110.089 76.4015 110.001 76.1967 110.07C76.1458 110.088 76.0962 110.107 76.0453 110.124C75.9198 110.166 75.7923 110.202 75.6635 110.233C75.5147 110.269 75.3646 110.296 75.214 110.323C74.9718 110.366 75.4052 110.308 75.2326 110.319C75.1496 110.324 75.0665 110.335 74.9834 110.342C74.5551 110.372 74.1243 110.366 73.6961 110.336C73.5892 110.328 73.4823 110.319 73.376 110.308C73.2736 110.298 73.1049 110.274 73.3007 110.303C73.1042 110.274 72.9085 110.24 72.7146 110.198C72.4081 110.131 72.1054 110.048 71.8105 109.941C71.7461 109.917 71.6669 109.874 71.5992 109.859C71.6733 109.875 71.8736 109.985 71.6849 109.894C71.5844 109.845 71.4833 109.798 71.3848 109.746C71.2334 109.666 71.0873 109.579 70.9411 109.49C70.3641 109.14 69.5005 109.344 69.1791 109.953C68.8487 110.579 69.0258 111.343 69.6415 111.716L69.6402 111.715Z" fill="#211715"/>
<path d="M73.678 102.565C73.774 103.058 73.8571 103.555 73.924 104.053L73.8783 103.71C73.9112 103.958 73.9614 104.223 73.9337 104.472L73.9794 104.129C73.971 104.181 73.9595 104.23 73.9401 104.28L74.0702 103.972C74.0573 104 74.0438 104.024 74.0264 104.049L74.228 103.788C74.208 103.812 74.1894 103.83 74.1655 103.85L74.4263 103.648C74.3935 103.669 74.3626 103.684 74.3265 103.7L74.6344 103.57C74.5403 103.608 74.4463 103.638 74.3458 103.654L74.6884 103.609C74.5996 103.62 74.512 103.621 74.4231 103.611L74.7657 103.657C74.6427 103.639 74.5262 103.6 74.4051 103.575C74.0638 103.505 73.7205 103.525 73.4127 103.705C73.1454 103.862 72.8904 104.168 72.8209 104.475C72.7455 104.805 72.7623 105.176 72.951 105.468C73.1261 105.74 73.3934 105.994 73.7205 106.061C73.9607 106.11 74.1733 106.163 74.4238 106.189C74.7065 106.218 75.0085 106.172 75.2751 106.074C75.5739 105.965 75.8032 105.86 76.0318 105.633C76.2231 105.443 76.3564 105.191 76.4369 104.937C76.5174 104.684 76.5335 104.404 76.5051 104.141C76.4246 103.383 76.3094 102.628 76.1638 101.88C76.1046 101.576 75.8302 101.261 75.572 101.109C75.2957 100.948 74.8887 100.879 74.5796 100.979C74.2679 101.08 73.9672 101.274 73.81 101.572C73.6413 101.891 73.6111 102.209 73.68 102.565L73.678 102.565Z" fill="#211715"/>
<path d="M63.4489 96.0035C63.029 97.0591 63.0734 99.5601 65.1664 99.9235C67.9542 100.108 68.3181 97.1145 67.4815 95.6342C66.797 94.4227 64.5733 93.779 63.4489 96.0035Z" fill="#211715"/>
<path d="M85.7638 97.6098C86.0285 98.7149 85.6266 101.184 83.5034 101.243C80.7181 101.026 80.7857 98.0112 81.8251 96.6663C82.6765 95.565 84.9691 95.2467 85.7638 97.6098Z" fill="#211715"/>
<path d="M85.8134 79.576C86.4619 83.2898 87.8117 86.9076 89.4229 90.3037C90.1268 91.7879 90.9015 93.252 91.8334 94.6066C92.5373 95.6305 93.339 96.7074 94.4306 97.3473C95.8641 98.1876 97.1618 95.9605 95.7308 95.1215C95.6452 95.0712 95.5569 95.0203 95.4771 94.9597C95.7064 95.1337 95.4075 94.8978 95.3856 94.8766C95.2105 94.711 95.0398 94.5441 94.8782 94.3649C94.4911 93.9357 94.1807 93.4975 93.8575 93.0084C92.9745 91.6725 92.2282 90.2445 91.5494 88.7958C90.0805 85.6587 88.8936 82.3103 88.2966 78.891C88.1768 78.2047 87.3371 77.8193 86.7124 77.9908C85.9885 78.1899 85.6936 78.8878 85.8134 79.576Z" fill="#211715"/>
<path d="M70.3177 81.2053C64.666 84.845 59.0865 88.5994 53.353 92.1109C51.9414 92.9757 53.2339 95.2061 54.6532 94.3367C60.3867 90.8253 65.9662 87.0709 71.6179 83.4312C73.0076 82.5361 71.7171 80.3044 70.3177 81.2053Z" fill="#211715"/>
<path d="M85.9293 78.4387C82.777 82.0874 78.9188 85.1465 74.3993 86.9096C73.2684 87.3511 72.1099 87.7184 70.932 88.0129C70.7672 88.0541 70.6017 88.0941 70.4362 88.1321C70.1296 88.1959 70.1026 88.2062 70.355 88.1617L71.0106 88.433C71.0969 88.5149 71.1587 88.6122 71.1961 88.7243C71.1671 88.5877 71.1671 88.6006 71.1961 88.7623C71.1909 88.6811 71.1896 88.5999 71.1916 88.5188C71.2012 88.4073 71.2102 88.1714 71.216 88.1179C71.4092 86.4328 72.0822 84.6703 72.4094 82.9503C72.7185 81.3289 70.2359 80.6349 69.9255 82.2653C69.6196 83.8712 69.0896 85.4255 68.7972 87.0346C68.557 88.3589 68.3619 90.6776 70.3177 90.7343C71.2547 90.7613 72.3128 90.3296 73.1989 90.0538C74.2962 89.7122 75.3685 89.2992 76.4214 88.839C78.4171 87.9671 80.3073 86.8632 82.0563 85.5654C84.1512 84.0117 86.0452 82.2337 87.7499 80.2598C88.8292 79.0103 87.0151 77.1795 85.9286 78.4374L85.9293 78.4387Z" fill="#211715"/>
<path d="M226.319 85.6157C226.545 85.7498 226.235 85.5384 226.237 85.5403C226.274 85.5913 226.344 85.6357 226.389 85.6815C226.438 85.7304 226.483 85.7833 226.53 85.8342C226.775 86.0991 226.461 85.7163 226.547 85.8464C226.794 86.2196 227.046 86.5837 227.27 86.9723C227.824 87.9305 228.314 88.9255 228.805 89.9166C229.311 90.9367 229.808 91.9633 230.359 92.9609C230.773 93.7123 231.224 94.532 231.853 95.1268C232.746 95.971 234.162 95.9813 234.768 94.782C235.081 94.1608 234.932 93.3849 234.305 93.0189C233.733 92.6838 232.858 92.8571 232.543 93.4816C232.521 93.5247 232.498 93.5872 232.463 93.6214C232.773 93.3211 232.669 93.3714 232.599 93.4403C232.493 93.546 232.821 93.2799 232.791 93.2979C232.632 93.3971 233.075 93.2083 233.121 93.2025C233.494 93.1568 233.012 93.18 233.384 93.2032C233.63 93.2186 233.541 93.2283 233.472 93.2103C233.357 93.1793 233.837 93.3804 233.634 93.2728C233.428 93.1645 233.844 93.4951 233.74 93.3617C233.656 93.2541 233.535 93.1548 233.442 93.053C233.243 92.8365 233.58 93.2599 233.468 93.0891C233.422 93.0195 233.37 92.9531 233.323 92.8848C233.203 92.7108 233.091 92.5323 232.982 92.3519C232.74 91.9511 232.515 91.5393 232.297 91.1256C231.318 89.2722 230.479 87.3402 229.415 85.5326C228.954 84.7496 228.422 83.8681 227.621 83.3912C226.192 82.5412 224.895 84.769 226.32 85.617L226.319 85.6157Z" fill="#211715"/>
<path d="M121.132 88.2599C119.673 86.9743 117.614 86.6579 115.83 87.4486C114.543 88.0189 113.752 89.1802 113.368 90.5032C112.489 93.5397 113.283 97.1194 115.041 99.7055C116.258 101.496 118.144 103.055 120.443 102.785C121.134 102.704 121.731 102.251 121.731 101.496C121.731 100.862 121.138 100.126 120.443 100.208C117.514 100.551 115.826 96.3809 115.636 93.9933C115.537 92.7515 115.555 91.2165 116.335 90.1816C116.148 90.4291 116.675 89.8968 116.579 89.9644C116.816 89.7969 117.057 89.7041 117.338 89.6441C118.021 89.4992 118.775 89.6106 119.31 90.0823C120.55 91.1753 122.379 89.3587 121.131 88.2599H121.132Z" fill="#211715"/>
<path d="M163.444 90.448C163.951 90.0169 164.666 89.9177 165.303 90.0388C165.895 90.1509 166.19 90.3617 166.499 90.7425C166.37 90.5834 166.467 90.6916 166.521 90.7973C166.582 90.9178 166.658 91.028 166.712 91.153C166.827 91.4192 166.896 91.7195 166.957 92.0043C167.113 92.7415 167.11 93.5174 167.051 94.2656C166.95 95.5564 166.486 96.8207 165.875 97.942C165.234 99.1174 163.994 100.823 162.441 100.614C161.753 100.522 161.059 100.78 160.857 101.515C160.692 102.115 161.062 103.007 161.757 103.1C165.705 103.632 168.101 99.9964 169.186 96.688C170.064 94.0091 170.037 89.8713 167.423 88.1397C165.641 86.9598 163.199 87.2845 161.623 88.6256C161.093 89.0767 161.159 89.984 161.623 90.448C162.148 90.9739 162.913 90.9004 163.444 90.448Z" fill="#211715"/>
<path d="M161 99.9637C160.749 101.084 160.387 102.206 159.933 103.261C159.875 103.395 159.44 104.351 159.64 103.913C159.544 104.122 159.448 104.328 159.343 104.533C158.671 105.845 157.849 107.087 156.972 108.268C154.852 111.124 151.974 114.145 148.372 114.933C146.753 115.287 147.438 117.773 149.056 117.419C153.216 116.509 156.488 113.143 158.968 109.873C159.933 108.6 160.838 107.259 161.567 105.834C161.683 105.606 161.793 105.374 161.896 105.14C161.892 105.147 162.155 104.56 162.01 104.882C162.123 104.63 162.236 104.379 162.342 104.123C162.811 102.998 163.217 101.84 163.483 100.649C163.845 99.0338 161.362 98.3436 160.999 99.9644L161 99.9637Z" fill="#211715"/>
<path d="M119.025 100.213C120.803 108.098 126.809 116.449 135.253 117.757C135.94 117.863 136.638 117.582 136.837 116.857C137.005 116.246 136.629 115.378 135.938 115.271C128.321 114.091 123.109 106.625 121.508 99.5282C121.143 97.9107 118.659 98.595 119.025 100.213Z" fill="#211715"/>
<path d="M156.327 59.6554C148.785 54.8216 138.891 53.9445 130.615 57.4141C123.884 60.2354 118.405 65.9198 115.98 72.8203C114.209 77.8578 114.161 83.2735 115.465 88.4224C115.872 90.0296 118.356 89.3485 117.949 87.7374C116.024 80.1319 117.605 71.9703 122.895 66.0623C124.975 63.7391 127.467 61.793 130.256 60.3952C134.029 58.5051 138.277 57.7743 142.473 57.9303C146.976 58.0978 151.237 59.4524 155.027 61.8813C156.427 62.7783 157.72 60.5486 156.327 59.6554Z" fill="#211715"/>
<path d="M167.203 88.8481C168.572 83.5922 168.62 78.1224 166.865 72.9393C165.483 68.8588 163.058 65.2152 159.857 62.3372C158.627 61.2314 156.8 63.0487 158.036 64.1597C160.906 66.7399 163.139 69.9556 164.381 73.6243C165.995 78.3885 165.979 83.3274 164.719 88.1625C164.3 89.769 166.784 90.4547 167.203 88.8481Z" fill="#211715"/>
<path d="M137.562 106.881C138.871 107.566 140.268 107.865 141.746 107.878C143.126 107.89 144.751 107.69 145.898 106.839C146.437 106.438 146.765 105.705 146.36 105.076C146.016 104.542 145.176 104.184 144.598 104.613C144.46 104.716 144.313 104.806 144.161 104.885C144.117 104.908 144.072 104.928 144.028 104.95C143.812 105.059 144.123 104.927 144.128 104.911C144.111 104.961 143.798 105.031 143.746 105.046C143.442 105.141 143.132 105.199 142.818 105.255C143.143 105.197 142.783 105.256 142.733 105.26C142.637 105.269 142.54 105.276 142.443 105.282C142.211 105.296 141.978 105.302 141.746 105.3C141.533 105.298 141.32 105.29 141.108 105.276C140.992 105.268 140.877 105.256 140.76 105.246C140.503 105.223 140.878 105.269 140.728 105.244C140.412 105.189 140.099 105.13 139.79 105.04C139.659 105.002 139.53 104.959 139.402 104.912C139.35 104.892 139.298 104.871 139.246 104.852C139.015 104.767 139.536 104.989 139.33 104.887C139.174 104.809 139.017 104.736 138.861 104.655C138.265 104.342 137.434 104.482 137.099 105.117C136.786 105.711 136.924 106.547 137.562 106.88V106.881Z" fill="#211715"/>
<path d="M141.146 97.2776C141.321 97.9485 141.489 98.6309 141.587 99.3179L141.541 98.975C141.553 99.0691 141.557 99.1619 141.546 99.256L141.592 98.9132C141.585 98.957 141.575 98.9976 141.559 99.0395L141.689 98.7314C141.676 98.7611 141.662 98.7856 141.643 98.8126L141.844 98.5517C141.832 98.5684 141.817 98.5832 141.801 98.5968L142.062 98.3951C142.005 98.4389 141.939 98.4679 141.874 98.4969L142.182 98.3667C142.092 98.4021 142.004 98.4286 141.909 98.444L142.251 98.3983C142.155 98.4099 142.061 98.4079 141.965 98.3957L142.308 98.4415C142.213 98.4273 142.119 98.4041 142.024 98.3906C141.853 98.3371 141.681 98.3293 141.51 98.3674C141.339 98.3751 141.179 98.426 141.031 98.5201C140.764 98.6767 140.509 98.9828 140.439 99.2902C140.364 99.6201 140.381 99.9907 140.569 100.283C140.737 100.544 141.017 100.831 141.339 100.875C141.578 100.909 141.811 100.966 142.054 100.982C142.45 101.008 142.821 100.882 143.175 100.722C143.607 100.527 143.919 100.145 144.056 99.6942C144.172 99.3101 144.126 98.9473 144.062 98.562C143.951 97.8989 143.801 97.2422 143.631 96.5913C143.55 96.2801 143.315 95.9823 143.04 95.8212C142.764 95.6601 142.356 95.5912 142.047 95.6911C141.376 95.9082 140.965 96.5771 141.148 97.2763L141.146 97.2776Z" fill="#211715"/>
<path d="M130.305 91.3407C129.945 92.4427 130.152 94.9869 132.307 95.2221C135.158 95.2305 135.336 92.1579 134.389 90.7047C133.614 89.5144 131.307 89.0028 130.305 91.3407Z" fill="#211715"/>
<path d="M153.134 91.5386C153.474 92.647 153.224 95.1867 151.066 95.3845C148.215 95.3433 148.09 92.2687 149.062 90.8317C149.858 89.6556 152.173 89.1832 153.134 91.5386H153.134Z" fill="#211715"/>
<path d="M148.684 77.8892C150.775 78.7997 152.484 80.1376 154.072 81.7673C155.612 83.3487 157.163 85.3181 157.958 87.27C158.221 87.9144 158.815 88.37 159.543 88.1703C160.152 88.0027 160.706 87.2333 160.442 86.585C159.442 84.131 157.844 81.9767 156.017 80.0731C154.268 78.25 152.309 76.6757 149.984 75.664C149.346 75.3862 148.602 75.4758 148.222 76.1267C147.903 76.6718 148.043 77.6108 148.684 77.8898L148.684 77.8892Z" fill="#211715"/>
<path d="M124.537 87.355C126.224 85.5699 128.024 83.8841 129.916 82.3195C130.824 81.5694 131.758 80.8521 132.74 80.2026C133.151 79.9306 133.568 79.6703 133.999 79.4312C134.113 79.368 134.227 79.3068 134.341 79.2475C134.042 79.2984 133.796 79.2372 133.602 79.0645C133.563 79.1341 133.666 79.8211 133.661 79.9441C133.615 81.2401 134.423 82.4136 135.834 82.3201C136.85 82.2531 137.966 81.3703 138.844 80.8824C141.007 79.6806 143.178 78.4111 145.476 77.4805C146.121 77.2195 146.575 76.6221 146.376 75.8952C146.207 75.2837 145.44 74.7321 144.791 74.995C142.352 75.9835 140.048 77.2666 137.75 78.5425C137.233 78.8299 136.717 79.118 136.198 79.4015C136.063 79.4756 135.795 79.5742 135.683 79.6812C135.383 79.8004 135.477 79.852 135.965 79.8372C136.162 80.2374 136.253 80.2728 136.237 79.9441C136.43 79.3957 136.14 78.3576 135.887 77.8627C135.604 77.3072 135.104 76.8838 134.491 76.7491C133.368 76.5023 132.131 77.5082 131.253 78.1005C130.227 78.7919 129.247 79.5523 128.29 80.3353C126.324 81.9438 124.459 83.685 122.715 85.5313C121.576 86.7364 123.394 88.5626 124.536 87.3537L124.537 87.355Z" fill="#211715"/>
<path d="M193.409 98.8528C193.756 96.587 194.607 94.3315 195.577 92.2668C196.178 90.9889 196.862 89.74 197.693 88.5955C198.342 87.7017 199.148 86.8756 200.035 86.3916C201.491 85.5977 200.192 83.3712 198.735 84.1658C196.231 85.5307 194.615 88.3191 193.427 90.8098C192.328 93.1136 191.314 95.6288 190.925 98.1678C190.82 98.8547 191.099 99.5539 191.825 99.7531C192.434 99.9206 193.303 99.5449 193.409 98.8528H193.409Z" fill="#211715"/>
<path d="M20.2835 193.508C24.2646 188.173 28.3488 182.755 31.5011 176.874C32.5341 174.946 33.2599 172.974 33.8311 170.869C34.658 167.825 35.3702 164.75 36.0696 161.674C37.0865 157.202 38.0441 152.717 38.9631 148.223C39.2941 146.604 36.8121 145.912 36.4792 147.538C35.0019 154.757 33.4904 161.987 31.6299 169.118C31.1064 171.126 30.5674 173.057 29.6361 174.884C28.2496 177.606 26.5662 180.18 24.8584 182.708C22.6785 185.935 20.3872 189.086 18.0578 192.206C17.6412 192.765 17.967 193.646 18.5202 193.97C19.1777 194.354 19.8649 194.067 20.2822 193.507L20.2835 193.508Z" fill="#211715"/>
<path d="M248.017 155.797C249.67 165.927 252.003 175.959 254.215 185.977C254.957 189.339 255.705 192.7 256.453 196.061C256.813 197.68 259.297 196.995 258.937 195.376C256.453 184.219 253.919 173.067 251.727 161.847C251.29 159.608 250.868 157.365 250.5 155.112C250.388 154.425 249.535 154.042 248.916 154.212C248.187 154.413 247.904 155.108 248.017 155.797Z" fill="#211715"/>
<path d="M187.108 163.388C189.419 174.238 191.419 185.154 193.445 196.06C193.747 197.69 196.23 196.999 195.929 195.375C193.903 184.469 191.902 173.553 189.592 162.703C189.247 161.082 186.763 161.768 187.108 163.388Z" fill="#211715"/>
<path d="M169.211 148.185C169.324 154.708 169.718 161.223 170.033 167.739C170.322 173.706 170.455 179.678 170.72 185.646C170.869 189.003 171.033 192.36 171.175 195.719C171.245 197.371 173.821 197.38 173.751 195.719C173.235 183.482 172.761 171.245 172.177 159.011C172.004 155.404 171.85 151.797 171.787 148.186C171.758 146.529 169.182 146.523 169.211 148.185Z" fill="#211715"/>
<path d="M110.157 195.718C110.644 184.152 111.074 172.585 111.641 161.023C111.82 157.366 111.976 153.708 112.037 150.047C112.065 148.388 109.489 148.388 109.461 150.047C109.351 156.611 108.938 163.164 108.631 169.72C108.366 175.376 108.245 181.037 107.989 186.694C107.853 189.702 107.708 192.709 107.581 195.718C107.511 197.377 110.087 197.373 110.157 195.718Z" fill="#211715"/>
<path d="M134.83 165.092C129.69 156.176 124.609 147.219 119.866 138.084C119.553 137.481 119.277 136.838 118.924 136.259C118.925 136.261 118.77 135.867 118.777 136.053C118.777 136.072 118.632 136.347 118.844 136.009C119.023 135.724 119.35 135.469 119.584 135.227C120.653 134.119 121.771 133.058 122.894 132.004C123.497 131.438 123.336 130.382 122.633 129.98C121.966 129.599 121.298 129.218 120.631 128.836C120.319 128.659 120.008 128.481 119.696 128.303C119.519 128.201 119.34 128.099 119.162 127.998C118.857 127.794 118.813 127.787 119.029 127.975L119.205 128.626C119.196 128.828 119.362 128.401 119.394 128.344C119.497 128.161 119.605 127.982 119.716 127.804C119.956 127.423 120.213 127.052 120.485 126.692C121.061 125.928 121.705 125.211 122.368 124.522C123.648 123.193 125.038 121.944 126.587 120.936L124.695 120.166C126.192 126.77 128.293 133.22 130.443 139.635C132.386 145.432 134.225 151.271 136.24 157.043C137.269 159.987 138.409 162.89 139.579 165.78C139.84 166.425 140.437 166.88 141.163 166.68C141.774 166.512 142.325 165.744 142.063 165.095C140.032 160.075 138.235 154.999 136.56 149.85C134.455 143.378 132.18 136.961 130.17 130.458C129.05 126.834 128.017 123.181 127.179 119.481C127 118.693 125.965 118.269 125.287 118.711C122.692 120.398 120.386 122.624 118.503 125.074C117.738 126.069 116.235 127.781 116.74 129.123C117.044 129.933 117.965 130.283 118.663 130.681C119.553 131.19 120.443 131.698 121.333 132.206L121.073 130.182C120.025 131.166 118.982 132.155 117.978 133.184C117.11 134.072 116.011 135.004 116.246 136.379C116.453 137.588 117.352 138.83 117.914 139.91C118.559 141.147 119.211 142.381 119.868 143.612C122.505 148.555 125.228 153.453 127.991 158.327C129.518 161.022 131.059 163.71 132.606 166.393C133.435 167.83 135.661 166.533 134.831 165.092H134.83Z" fill="#211715"/>
<path d="M142.991 165.826C145.048 160.553 147.129 155.3 148.899 149.92C150.983 143.589 153.208 137.304 155.178 130.936C156.283 127.366 157.3 123.768 158.128 120.123L156.236 120.893C157.847 121.876 159.277 123.141 160.597 124.484C161.305 125.204 161.992 125.957 162.607 126.76C162.858 127.087 163.097 127.427 163.322 127.773C163.435 127.947 163.545 128.124 163.651 128.304C163.699 128.386 163.941 128.909 163.934 128.745L164.11 128.095C164.326 127.905 164.282 127.912 163.976 128.116C163.799 128.217 163.62 128.318 163.443 128.419C163.131 128.596 162.82 128.774 162.508 128.951C161.841 129.33 161.173 129.71 160.506 130.089C159.803 130.49 159.642 131.549 160.245 132.114C161.256 133.058 162.261 134.009 163.233 134.994C163.526 135.291 164.306 135.893 164.378 136.197C164.323 135.963 164.101 136.566 164.038 136.69C163.891 136.973 163.744 137.257 163.596 137.54C162.413 139.805 161.194 142.053 159.955 144.288C157.366 148.956 154.682 153.57 151.962 158.161C150.44 160.73 148.905 163.293 147.366 165.852C146.509 167.277 148.736 168.574 149.59 167.153C155.382 157.522 161.167 147.861 166.324 137.87C166.677 137.188 167.039 136.514 166.892 135.72C166.757 134.983 166.304 134.474 165.802 133.944C164.604 132.679 163.339 131.479 162.066 130.29L161.806 132.314C162.696 131.808 163.586 131.302 164.475 130.796C165.214 130.376 166.214 129.995 166.463 129.087C166.839 127.715 165.203 125.923 164.428 124.936C162.529 122.518 160.167 120.271 157.535 118.666C156.848 118.248 155.825 118.63 155.643 119.437C154.168 125.933 152.102 132.277 149.981 138.586C148.003 144.472 146.14 150.411 143.967 156.229C142.852 159.214 141.663 162.171 140.505 165.139C140.252 165.787 140.783 166.553 141.405 166.724C142.134 166.925 142.735 166.475 142.989 165.824L142.991 165.826Z" fill="#211715"/>
<path d="M141.049 122.053C137.583 119.718 134.183 117.279 130.687 114.99C130.247 114.703 129.474 114.773 129.126 115.192C127.974 116.576 126.955 118.063 125.793 119.439C125.433 119.865 125.267 120.495 125.591 121.001C128.146 124.983 130.502 129.152 134.066 132.345C134.674 132.889 135.658 132.837 136.089 132.084C137.727 129.22 139.751 126.601 141.511 123.816C142.399 122.41 140.171 121.115 139.286 122.515C137.527 125.3 135.502 127.919 133.865 130.782L135.888 130.521C132.481 127.47 130.257 123.506 127.816 119.7L127.614 121.262C128.776 119.886 129.795 118.397 130.947 117.014L129.386 117.216C132.881 119.505 136.282 121.945 139.748 124.279C141.127 125.208 142.419 122.976 141.049 122.053Z" fill="#211715"/>
<path d="M144.679 131.206C142.521 131.205 140.364 131.161 138.206 131.16C137.532 131.16 136.887 131.753 136.918 132.449C136.949 133.145 137.484 133.738 138.206 133.738C140.364 133.738 142.521 133.783 144.679 133.784C145.353 133.784 145.998 133.191 145.967 132.495C145.936 131.799 145.401 131.206 144.679 131.206Z" fill="#211715"/>
<path d="M144.735 128.482C144.509 129.692 144.255 130.897 143.978 132.097C143.825 132.761 143.677 133.441 143.731 134.124C143.825 135.297 144.016 136.469 144.161 137.636C144.726 142.166 145.29 146.695 145.819 151.228C145.9 151.92 146.354 152.517 147.107 152.517C147.741 152.517 148.476 151.924 148.395 151.228C147.873 146.76 147.318 142.295 146.762 137.831C146.613 136.637 146.455 135.444 146.321 134.248C146.265 133.743 146.347 133.284 146.462 132.782C146.738 131.583 146.992 130.378 147.219 129.167C147.522 127.546 145.041 126.851 144.735 128.482V128.482Z" fill="#211715"/>
<path d="M136.875 151.478C137.51 147.004 138.154 142.531 138.773 138.055C138.94 136.845 139.124 135.636 139.255 134.421C139.442 132.678 138.593 130.9 138.194 129.232C137.807 127.62 135.323 128.302 135.71 129.917C136.059 131.374 136.844 132.941 136.675 134.459C136.547 135.609 136.394 136.62 136.232 137.784C135.63 142.122 135.007 146.456 134.392 150.792C134.294 151.48 134.56 152.176 135.291 152.377C135.895 152.543 136.777 152.17 136.875 151.477L136.875 151.478Z" fill="#211715"/>
<path d="M142.839 124.35C146.305 122.015 149.706 119.576 153.202 117.287L151.641 117.085C152.792 118.469 153.812 119.957 154.973 121.333L154.772 119.771C152.33 123.577 150.106 127.541 146.7 130.592L148.723 130.853C147.085 127.99 145.061 125.371 143.301 122.586C142.418 121.188 140.187 122.479 141.077 123.887C142.836 126.672 144.861 129.291 146.499 132.154C146.929 132.907 147.914 132.959 148.521 132.415C152.085 129.223 154.441 125.054 156.996 121.072C157.324 120.561 157.157 119.939 156.795 119.51C155.633 118.134 154.613 116.646 153.462 115.263C153.116 114.847 152.345 114.771 151.901 115.061C148.405 117.35 145.004 119.79 141.539 122.124C140.171 123.046 141.459 125.28 142.839 124.35Z" fill="#211715"/>
<path d="M139.464 173.009C138.271 174.062 138.737 175.514 139.186 176.061C139.937 176.975 141.573 177.065 142.35 176.355C143.414 175.385 143.196 174.07 142.457 173.198C141.828 172.455 140.295 172.275 139.463 173.009H139.464Z" fill="#211715"/>
<path d="M215.825 126.91C212.137 124.945 208.504 122.869 204.791 120.952C204.143 120.618 203.434 120.81 203.029 121.415C202.026 122.909 201.166 124.495 200.151 125.983C199.804 126.493 200.01 127.115 200.353 127.545C203.32 131.263 206.089 135.097 209.982 137.918C210.503 138.295 211.482 138.05 211.744 137.456C213.078 134.439 214.824 131.626 216.287 128.674C217.021 127.193 214.8 125.885 214.063 127.373C212.6 130.325 210.854 133.138 209.52 136.155L211.282 135.692C207.6 133.024 204.977 129.234 202.173 125.721L202.375 127.284C203.389 125.796 204.25 124.21 205.253 122.715L203.491 123.178C207.204 125.094 210.837 127.171 214.525 129.136C215.987 129.916 217.29 127.691 215.825 126.91Z" fill="#211715"/>
<path d="M220.392 135.573C218.246 135.794 216.095 135.972 213.948 136.193C213.28 136.262 212.627 136.736 212.66 137.482C212.689 138.121 213.23 138.845 213.948 138.771C216.095 138.549 218.246 138.371 220.392 138.15C221.06 138.081 221.713 137.607 221.68 136.861C221.652 136.222 221.11 135.499 220.392 135.573Z" fill="#211715"/>
<path d="M211.161 135.098C211.661 136.5 212.663 138.093 212.614 139.48C212.585 140.273 212.539 141.064 212.497 141.856C212.336 144.928 212.163 148 211.994 151.071C211.784 154.869 211.576 158.668 211.377 162.467C211.288 164.167 211.202 165.869 211.12 167.57C211.086 168.299 211.052 169.03 211.019 169.76C210.987 170.49 210.83 171.369 211.159 172.044C211.685 173.125 212.606 174.117 213.34 175.062C214.14 176.092 214.962 177.104 215.799 178.103C216.671 179.144 217.558 180.173 218.456 181.192C218.853 181.644 219.253 182.093 219.655 182.541C220.054 182.986 220.454 183.559 220.977 183.865C221.572 184.214 222.349 184.186 222.934 183.839C223.576 183.457 223.893 182.679 224.25 182.055C225.027 180.697 225.789 179.329 226.534 177.953C227.21 176.703 227.873 175.446 228.518 174.18C229.095 173.049 229.836 171.867 230.233 170.657C230.48 169.907 230.179 169.087 230.004 168.345C229.849 167.689 229.691 167.034 229.53 166.379C229.153 164.849 228.768 163.32 228.377 161.793C227.46 158.201 226.519 154.614 225.573 151.029C224.748 147.9 223.915 144.774 223.083 141.647C222.833 140.705 222.582 139.763 222.334 138.821C222.126 138.03 222.091 137.756 222.185 136.958C222.336 135.681 222.488 134.407 222.583 133.125C222.706 131.47 220.129 131.478 220.007 133.125C219.914 134.387 219.765 135.642 219.617 136.899C219.545 137.504 219.51 138.105 219.641 138.703C219.767 139.277 219.938 139.844 220.089 140.411C220.776 143.005 221.469 145.597 222.156 148.19C223.907 154.789 225.675 161.387 227.279 168.022C227.432 168.656 227.548 169.309 227.73 169.934C227.748 169.996 227.768 170.077 227.778 170.143C227.739 169.862 227.815 169.876 227.663 170.117C227.484 170.403 227.359 170.746 227.21 171.05C226.868 171.747 226.519 172.44 226.165 173.131C225.444 174.539 224.701 175.937 223.942 177.327C223.543 178.058 223.139 178.786 222.73 179.512C222.523 179.881 222.314 180.249 222.104 180.617C222.025 180.756 221.946 180.894 221.867 181.032C221.787 181.171 221.708 181.309 221.628 181.448C221.451 181.673 221.565 181.694 221.97 181.51L222.538 181.841C221.657 181.147 220.932 180.113 220.19 179.271C219.353 178.318 218.524 177.358 217.708 176.386C216.893 175.415 216.098 174.442 215.322 173.446C214.669 172.608 213.835 171.709 213.383 170.744L213.559 171.394C213.443 170.386 213.615 169.275 213.663 168.262C213.722 166.998 213.785 165.733 213.849 164.469C213.998 161.545 214.155 158.623 214.315 155.7C214.583 150.776 214.87 145.853 215.12 140.928C215.148 140.378 215.201 139.82 215.196 139.268C215.179 137.586 214.196 135.962 213.644 134.413C213.091 132.863 210.601 133.53 211.16 135.098H211.161Z" fill="#211715"/>
<path d="M217.874 128.821C221.081 126.142 224.213 123.366 227.455 120.728H225.633C226.921 121.986 228.088 123.36 229.385 124.61L229.184 123.048C227.154 127.07 225.358 131.289 222.296 134.663L224.318 134.924C222.33 132.155 219.978 129.674 217.874 126.998C217.443 126.451 216.504 126.547 216.053 126.998C215.512 127.539 215.621 128.272 216.053 128.821C218.021 131.323 220.235 133.636 222.095 136.225C222.551 136.861 223.515 137.15 224.117 136.486C227.344 132.93 229.269 128.589 231.409 124.35C231.664 123.843 231.635 123.2 231.207 122.788C229.91 121.539 228.743 120.163 227.455 118.906C226.92 118.382 226.18 118.461 225.634 118.906C222.392 121.543 219.26 124.319 216.053 126.998C214.78 128.062 216.61 129.877 217.875 128.821H217.874Z" fill="#211715"/>
<path d="M62.3032 173.142C61.0114 174.009 61.2741 175.475 61.6393 176.064C62.2491 177.046 63.8218 177.345 64.6673 176.758C65.8239 175.955 65.7827 174.654 65.1799 173.713C64.6667 172.912 63.2048 172.539 62.3032 173.142Z" fill="#211715"/>
<path d="M66.6276 164.911C71.9006 155.702 76.7138 146.217 81.1084 136.555C82.4865 133.526 83.7951 130.464 84.9852 127.355L82.8323 127.924C84.2079 128.995 85.4147 130.295 86.4928 131.661C87.0273 132.339 87.5238 133.052 87.9727 133.79C88.2483 134.242 88.9998 135.21 88.9509 135.765L89.3283 134.854C89.1705 135.027 88.7596 135.118 88.5478 135.218C88.1755 135.391 87.8065 135.571 87.4382 135.753C86.7504 136.091 86.0652 136.436 85.3716 136.761C84.6194 137.114 84.5544 138.25 85.1108 138.785C85.6627 139.316 86.2345 139.824 86.7955 140.345C87.0595 140.591 87.3216 140.839 87.5734 141.097C87.7775 141.307 88.0538 141.776 88.3043 141.908L88.4499 142.092C88.5742 141.818 88.5645 141.803 88.4202 142.048C88.1762 142.295 87.9862 142.648 87.7814 142.928C87.3454 143.525 86.9062 144.119 86.4644 144.711C84.7398 147.023 82.9727 149.303 81.1824 151.565C77.473 156.25 73.6664 160.859 69.843 165.451C68.7888 166.718 70.6017 168.55 71.6643 167.274C74.917 163.367 78.1563 159.448 81.3357 155.481C84.4893 151.545 87.6681 147.59 90.5654 143.458C92.328 140.945 88.5078 138.476 86.9326 136.962L86.6718 138.986C87.4079 138.641 88.1337 138.275 88.8633 137.917C89.564 137.573 90.5312 137.315 91.0806 136.753C92.1818 135.627 90.9543 133.765 90.3162 132.687C88.8614 130.23 86.912 127.86 84.6535 126.101C83.855 125.479 82.8723 125.7 82.5007 126.67C80.4399 132.052 78.0011 137.279 75.4754 142.456C73.1525 147.217 70.8341 151.993 68.3161 156.654C67.0513 158.995 65.7247 161.302 64.4026 163.611C63.577 165.052 65.802 166.352 66.627 164.912L66.6276 164.911Z" fill="#211715"/>
<path d="M66.5903 164.213C65.3474 159.437 64.0806 154.676 63.1043 149.835C61.9606 144.167 60.6939 138.521 59.6506 132.833C59.0672 129.653 58.561 126.458 58.2371 123.241C58.1636 122.514 57.4559 121.643 56.6065 121.998C53.8772 123.138 51.327 124.871 49.1916 126.917C48.3074 127.764 46.5731 129.267 47.2705 130.629C47.6131 131.298 48.3879 131.754 48.9462 132.242C49.6275 132.838 50.2986 133.446 50.9883 134.033L51.2491 132.009C50.2368 132.562 49.1845 133.045 48.1927 133.636C47.1759 134.241 45.8705 135.014 45.8596 136.352C45.8505 137.44 46.5486 138.639 46.9363 139.631C47.3826 140.775 47.8385 141.914 48.3016 143.052C50.258 147.858 52.3317 152.615 54.451 157.351C55.6353 159.998 56.8351 162.638 58.0393 165.275C58.3285 165.908 59.2443 166.064 59.8013 165.738C60.4511 165.358 60.5535 164.61 60.2637 163.975C57.7599 158.493 55.2773 153.001 52.9106 147.459C51.7611 144.767 50.6425 142.061 49.5728 139.337C49.3036 138.651 49.0376 137.963 48.7755 137.275C48.6892 137.049 48.6287 136.714 48.4877 136.513C48.4201 136.227 48.3943 136.251 48.4104 136.584C48.5508 136.478 48.6944 136.375 48.8399 136.277C50.0081 135.482 51.3129 134.912 52.5493 134.236C53.2345 133.861 53.4374 132.745 52.8101 132.212C52.226 131.715 51.6555 131.203 51.0804 130.696C50.806 130.454 50.5311 130.212 50.2522 129.975C50.0468 129.8 49.6185 129.57 49.4955 129.33L49.6256 130.323C49.7158 129.824 50.58 129.162 50.931 128.821C51.5763 128.194 52.2653 127.609 52.9866 127.073C54.3164 126.085 55.7577 125.126 57.2923 124.485L55.6617 123.242C56.2523 129.102 57.3812 134.891 58.5777 140.652C59.688 145.997 60.6913 151.378 61.9831 156.682C62.6529 159.431 63.3948 162.161 64.107 164.899C64.5243 166.503 67.0095 165.824 66.5909 164.214L66.5903 164.213Z" fill="#211715"/>
<path d="M200.035 86.391C201.7 85.6029 203.85 85.8645 205.623 86.0102C207.519 86.1661 209.402 86.4046 211.308 86.286C214.953 86.0598 218.535 85.2298 222.181 85.0126C223.039 84.9617 223.916 84.9308 224.772 85.0345C224.922 85.0526 225.376 85.1505 225.634 85.2266C225.886 85.3013 225.687 85.222 225.848 85.3052C225.921 85.3425 226.256 85.572 226.058 85.4128C226.599 85.8497 227.352 85.9412 227.88 85.4128C228.332 84.9604 228.423 84.0299 227.88 83.5904C226.686 82.6244 225.179 82.4175 223.681 82.3956C221.718 82.3666 219.753 82.6501 217.812 82.915C215.871 83.1799 213.94 83.4924 211.991 83.658C210.016 83.8256 208.088 83.6497 206.12 83.475C203.651 83.2559 201.035 83.0761 198.734 84.1652C197.236 84.8741 198.542 87.0967 200.034 86.391H200.035Z" fill="#211715"/>
<path d="M79.0199 134.843C72.3038 137.199 65.1606 135.47 59.1406 132.101C57.6923 131.29 56.392 133.516 57.8404 134.326C64.4226 138.01 72.3604 139.905 79.7045 137.328C81.2584 136.783 80.59 134.292 79.0199 134.843Z" fill="#211715"/>
</svg>
